<?xml version="1.0" encoding="utf-8" standalone="no"?>
<!DOCTYPE svg PUBLIC "-//W3C//DTD SVG 1.1//EN"
  "http://www.w3.org/Graphics/SVG/1.1/DTD/svg11.dtd">
<svg xmlns:xlink="http://www.w3.org/1999/xlink" width="503.74375pt" height="305.4025pt" viewBox="0 0 503.74375 305.4025" xmlns="http://www.w3.org/2000/svg" version="1.1">
 <metadata>
  <rdf:RDF xmlns:dc="http://purl.org/dc/elements/1.1/" xmlns:cc="http://creativecommons.org/ns#" xmlns:rdf="http://www.w3.org/1999/02/22-rdf-syntax-ns#">
   <cc:Work>
    <dc:type rdf:resource="http://purl.org/dc/dcmitype/StillImage"/>
    <dc:date>2026-01-22T20:06:01.076410</dc:date>
    <dc:format>image/svg+xml</dc:format>
    <dc:creator>
     <cc:Agent>
      <dc:title>Matplotlib v3.10.8, https://matplotlib.org/</dc:title>
     </cc:Agent>
    </dc:creator>
   </cc:Work>
  </rdf:RDF>
 </metadata>
 <defs>
  <style type="text/css">*{stroke-linejoin: round; stroke-linecap: butt}</style>
 </defs>
 <g id="figure_1">
  <g id="patch_1">
   <path d="M 0 305.4025 
L 503.74375 305.4025 
L 503.74375 0 
L 0 0 
z
" style="fill: #ffffff"/>
  </g>
  <g id="axes_1">
   <g id="patch_2">
    <path d="M 50.14375 271.798125 
L 496.54375 271.798125 
L 496.54375 22.318125 
L 50.14375 22.318125 
z
" style="fill: #ffffff"/>
   </g>
   <g id="matplotlib.axis_1">
    <g id="xtick_1">
     <g id="text_1">
      <!-- 67 -->
      <g transform="translate(52.624896 282.615625) rotate(-90) scale(0.03 -0.03)">
       <defs>
        <path id="DejaVuSans-36" d="M 2113 2584 
Q 1688 2584 1439 2293 
Q 1191 2003 1191 1497 
Q 1191 994 1439 701 
Q 1688 409 2113 409 
Q 2538 409 2786 701 
Q 3034 994 3034 1497 
Q 3034 2003 2786 2293 
Q 2538 2584 2113 2584 
z
M 3366 4563 
L 3366 3988 
Q 3128 4100 2886 4159 
Q 2644 4219 2406 4219 
Q 1781 4219 1451 3797 
Q 1122 3375 1075 2522 
Q 1259 2794 1537 2939 
Q 1816 3084 2150 3084 
Q 2853 3084 3261 2657 
Q 3669 2231 3669 1497 
Q 3669 778 3244 343 
Q 2819 -91 2113 -91 
Q 1303 -91 875 529 
Q 447 1150 447 2328 
Q 447 3434 972 4092 
Q 1497 4750 2381 4750 
Q 2619 4750 2861 4703 
Q 3103 4656 3366 4563 
z
" transform="scale(0.015625)"/>
        <path id="DejaVuSans-37" d="M 525 4666 
L 3525 4666 
L 3525 4397 
L 1831 0 
L 1172 0 
L 2766 4134 
L 525 4134 
L 525 4666 
z
" transform="scale(0.015625)"/>
       </defs>
       <use xlink:href="#DejaVuSans-36"/>
       <use xlink:href="#DejaVuSans-37" transform="translate(63.623047 0)"/>
      </g>
     </g>
    </g>
    <g id="xtick_2">
     <g id="text_2">
      <!-- 80 -->
      <g transform="translate(55.931562 282.615625) rotate(-90) scale(0.03 -0.03)">
       <defs>
        <path id="DejaVuSans-38" d="M 2034 2216 
Q 1584 2216 1326 1975 
Q 1069 1734 1069 1313 
Q 1069 891 1326 650 
Q 1584 409 2034 409 
Q 2484 409 2743 651 
Q 3003 894 3003 1313 
Q 3003 1734 2745 1975 
Q 2488 2216 2034 2216 
z
M 1403 2484 
Q 997 2584 770 2862 
Q 544 3141 544 3541 
Q 544 4100 942 4425 
Q 1341 4750 2034 4750 
Q 2731 4750 3128 4425 
Q 3525 4100 3525 3541 
Q 3525 3141 3298 2862 
Q 3072 2584 2669 2484 
Q 3125 2378 3379 2068 
Q 3634 1759 3634 1313 
Q 3634 634 3220 271 
Q 2806 -91 2034 -91 
Q 1263 -91 848 271 
Q 434 634 434 1313 
Q 434 1759 690 2068 
Q 947 2378 1403 2484 
z
M 1172 3481 
Q 1172 3119 1398 2916 
Q 1625 2713 2034 2713 
Q 2441 2713 2670 2916 
Q 2900 3119 2900 3481 
Q 2900 3844 2670 4047 
Q 2441 4250 2034 4250 
Q 1625 4250 1398 4047 
Q 1172 3844 1172 3481 
z
" transform="scale(0.015625)"/>
        <path id="DejaVuSans-30" d="M 2034 4250 
Q 1547 4250 1301 3770 
Q 1056 3291 1056 2328 
Q 1056 1369 1301 889 
Q 1547 409 2034 409 
Q 2525 409 2770 889 
Q 3016 1369 3016 2328 
Q 3016 3291 2770 3770 
Q 2525 4250 2034 4250 
z
M 2034 4750 
Q 2819 4750 3233 4129 
Q 3647 3509 3647 2328 
Q 3647 1150 3233 529 
Q 2819 -91 2034 -91 
Q 1250 -91 836 529 
Q 422 1150 422 2328 
Q 422 3509 836 4129 
Q 1250 4750 2034 4750 
z
" transform="scale(0.015625)"/>
       </defs>
       <use xlink:href="#DejaVuSans-38"/>
       <use xlink:href="#DejaVuSans-30" transform="translate(63.623047 0)"/>
      </g>
     </g>
    </g>
    <g id="xtick_3">
     <g id="text_3">
      <!-- 132 -->
      <g transform="translate(59.238229 284.524375) rotate(-90) scale(0.03 -0.03)">
       <defs>
        <path id="DejaVuSans-31" d="M 794 531 
L 1825 531 
L 1825 4091 
L 703 3866 
L 703 4441 
L 1819 4666 
L 2450 4666 
L 2450 531 
L 3481 531 
L 3481 0 
L 794 0 
L 794 531 
z
" transform="scale(0.015625)"/>
        <path id="DejaVuSans-33" d="M 2597 2516 
Q 3050 2419 3304 2112 
Q 3559 1806 3559 1356 
Q 3559 666 3084 287 
Q 2609 -91 1734 -91 
Q 1441 -91 1130 -33 
Q 819 25 488 141 
L 488 750 
Q 750 597 1062 519 
Q 1375 441 1716 441 
Q 2309 441 2620 675 
Q 2931 909 2931 1356 
Q 2931 1769 2642 2001 
Q 2353 2234 1838 2234 
L 1294 2234 
L 1294 2753 
L 1863 2753 
Q 2328 2753 2575 2939 
Q 2822 3125 2822 3475 
Q 2822 3834 2567 4026 
Q 2313 4219 1838 4219 
Q 1578 4219 1281 4162 
Q 984 4106 628 3988 
L 628 4550 
Q 988 4650 1302 4700 
Q 1616 4750 1894 4750 
Q 2613 4750 3031 4423 
Q 3450 4097 3450 3541 
Q 3450 3153 3228 2886 
Q 3006 2619 2597 2516 
z
" transform="scale(0.015625)"/>
        <path id="DejaVuSans-32" d="M 1228 531 
L 3431 531 
L 3431 0 
L 469 0 
L 469 531 
Q 828 903 1448 1529 
Q 2069 2156 2228 2338 
Q 2531 2678 2651 2914 
Q 2772 3150 2772 3378 
Q 2772 3750 2511 3984 
Q 2250 4219 1831 4219 
Q 1534 4219 1204 4116 
Q 875 4013 500 3803 
L 500 4441 
Q 881 4594 1212 4672 
Q 1544 4750 1819 4750 
Q 2544 4750 2975 4387 
Q 3406 4025 3406 3419 
Q 3406 3131 3298 2873 
Q 3191 2616 2906 2266 
Q 2828 2175 2409 1742 
Q 1991 1309 1228 531 
z
" transform="scale(0.015625)"/>
       </defs>
       <use xlink:href="#DejaVuSans-31"/>
       <use xlink:href="#DejaVuSans-33" transform="translate(63.623047 0)"/>
       <use xlink:href="#DejaVuSans-32" transform="translate(127.246094 0)"/>
      </g>
     </g>
    </g>
    <g id="xtick_4">
     <g id="text_4">
      <!-- 62 -->
      <g transform="translate(62.544896 282.615625) rotate(-90) scale(0.03 -0.03)">
       <use xlink:href="#DejaVuSans-36"/>
       <use xlink:href="#DejaVuSans-32" transform="translate(63.623047 0)"/>
      </g>
     </g>
    </g>
    <g id="xtick_5">
     <g id="text_5">
      <!-- 38 -->
      <g transform="translate(65.851562 282.615625) rotate(-90) scale(0.03 -0.03)">
       <use xlink:href="#DejaVuSans-33"/>
       <use xlink:href="#DejaVuSans-38" transform="translate(63.623047 0)"/>
      </g>
     </g>
    </g>
    <g id="xtick_6">
     <g id="text_6">
      <!-- 49 -->
      <g transform="translate(69.158229 282.615625) rotate(-90) scale(0.03 -0.03)">
       <defs>
        <path id="DejaVuSans-34" d="M 2419 4116 
L 825 1625 
L 2419 1625 
L 2419 4116 
z
M 2253 4666 
L 3047 4666 
L 3047 1625 
L 3713 1625 
L 3713 1100 
L 3047 1100 
L 3047 0 
L 2419 0 
L 2419 1100 
L 313 1100 
L 313 1709 
L 2253 4666 
z
" transform="scale(0.015625)"/>
        <path id="DejaVuSans-39" d="M 703 97 
L 703 672 
Q 941 559 1184 500 
Q 1428 441 1663 441 
Q 2288 441 2617 861 
Q 2947 1281 2994 2138 
Q 2813 1869 2534 1725 
Q 2256 1581 1919 1581 
Q 1219 1581 811 2004 
Q 403 2428 403 3163 
Q 403 3881 828 4315 
Q 1253 4750 1959 4750 
Q 2769 4750 3195 4129 
Q 3622 3509 3622 2328 
Q 3622 1225 3098 567 
Q 2575 -91 1691 -91 
Q 1453 -91 1209 -44 
Q 966 3 703 97 
z
M 1959 2075 
Q 2384 2075 2632 2365 
Q 2881 2656 2881 3163 
Q 2881 3666 2632 3958 
Q 2384 4250 1959 4250 
Q 1534 4250 1286 3958 
Q 1038 3666 1038 3163 
Q 1038 2656 1286 2365 
Q 1534 2075 1959 2075 
z
" transform="scale(0.015625)"/>
       </defs>
       <use xlink:href="#DejaVuSans-34"/>
       <use xlink:href="#DejaVuSans-39" transform="translate(63.623047 0)"/>
      </g>
     </g>
    </g>
    <g id="xtick_7">
     <g id="text_7">
      <!-- 60 -->
      <g transform="translate(72.464896 282.615625) rotate(-90) scale(0.03 -0.03)">
       <use xlink:href="#DejaVuSans-36"/>
       <use xlink:href="#DejaVuSans-30" transform="translate(63.623047 0)"/>
      </g>
     </g>
    </g>
    <g id="xtick_8">
     <g id="text_8">
      <!-- 96 -->
      <g transform="translate(75.771562 282.615625) rotate(-90) scale(0.03 -0.03)">
       <use xlink:href="#DejaVuSans-39"/>
       <use xlink:href="#DejaVuSans-36" transform="translate(63.623047 0)"/>
      </g>
     </g>
    </g>
    <g id="xtick_9">
     <g id="text_9">
      <!-- 73 -->
      <g transform="translate(79.078229 282.615625) rotate(-90) scale(0.03 -0.03)">
       <use xlink:href="#DejaVuSans-37"/>
       <use xlink:href="#DejaVuSans-33" transform="translate(63.623047 0)"/>
      </g>
     </g>
    </g>
    <g id="xtick_10">
     <g id="text_10">
      <!-- 20 -->
      <g transform="translate(82.384896 282.615625) rotate(-90) scale(0.03 -0.03)">
       <use xlink:href="#DejaVuSans-32"/>
       <use xlink:href="#DejaVuSans-30" transform="translate(63.623047 0)"/>
      </g>
     </g>
    </g>
    <g id="xtick_11">
     <g id="text_11">
      <!-- 11 -->
      <g transform="translate(85.691562 282.615625) rotate(-90) scale(0.03 -0.03)">
       <use xlink:href="#DejaVuSans-31"/>
       <use xlink:href="#DejaVuSans-31" transform="translate(63.623047 0)"/>
      </g>
     </g>
    </g>
    <g id="xtick_12">
     <g id="text_12">
      <!-- 44 -->
      <g transform="translate(88.998229 282.615625) rotate(-90) scale(0.03 -0.03)">
       <use xlink:href="#DejaVuSans-34"/>
       <use xlink:href="#DejaVuSans-34" transform="translate(63.623047 0)"/>
      </g>
     </g>
    </g>
    <g id="xtick_13">
     <g id="text_13">
      <!-- 125 -->
      <g transform="translate(92.304896 284.524375) rotate(-90) scale(0.03 -0.03)">
       <defs>
        <path id="DejaVuSans-35" d="M 691 4666 
L 3169 4666 
L 3169 4134 
L 1269 4134 
L 1269 2991 
Q 1406 3038 1543 3061 
Q 1681 3084 1819 3084 
Q 2600 3084 3056 2656 
Q 3513 2228 3513 1497 
Q 3513 744 3044 326 
Q 2575 -91 1722 -91 
Q 1428 -91 1123 -41 
Q 819 9 494 109 
L 494 744 
Q 775 591 1075 516 
Q 1375 441 1709 441 
Q 2250 441 2565 725 
Q 2881 1009 2881 1497 
Q 2881 1984 2565 2268 
Q 2250 2553 1709 2553 
Q 1456 2553 1204 2497 
Q 953 2441 691 2322 
L 691 4666 
z
" transform="scale(0.015625)"/>
       </defs>
       <use xlink:href="#DejaVuSans-31"/>
       <use xlink:href="#DejaVuSans-32" transform="translate(63.623047 0)"/>
       <use xlink:href="#DejaVuSans-35" transform="translate(127.246094 0)"/>
      </g>
     </g>
    </g>
    <g id="xtick_14">
     <g id="text_14">
      <!-- 1 -->
      <g transform="translate(95.611562 280.706875) rotate(-90) scale(0.03 -0.03)">
       <use xlink:href="#DejaVuSans-31"/>
      </g>
     </g>
    </g>
    <g id="xtick_15">
     <g id="text_15">
      <!-- 47 -->
      <g transform="translate(98.918229 282.615625) rotate(-90) scale(0.03 -0.03)">
       <use xlink:href="#DejaVuSans-34"/>
       <use xlink:href="#DejaVuSans-37" transform="translate(63.623047 0)"/>
      </g>
     </g>
    </g>
    <g id="xtick_16">
     <g id="text_16">
      <!-- 5 -->
      <g transform="translate(102.224896 280.706875) rotate(-90) scale(0.03 -0.03)">
       <use xlink:href="#DejaVuSans-35"/>
      </g>
     </g>
    </g>
    <g id="xtick_17">
     <g id="text_17">
      <!-- 114 -->
      <g transform="translate(105.531562 284.524375) rotate(-90) scale(0.03 -0.03)">
       <use xlink:href="#DejaVuSans-31"/>
       <use xlink:href="#DejaVuSans-31" transform="translate(63.623047 0)"/>
       <use xlink:href="#DejaVuSans-34" transform="translate(127.246094 0)"/>
      </g>
     </g>
    </g>
    <g id="xtick_18">
     <g id="text_18">
      <!-- 28 -->
      <g transform="translate(108.838229 282.615625) rotate(-90) scale(0.03 -0.03)">
       <use xlink:href="#DejaVuSans-32"/>
       <use xlink:href="#DejaVuSans-38" transform="translate(63.623047 0)"/>
      </g>
     </g>
    </g>
    <g id="xtick_19">
     <g id="text_19">
      <!-- 131 -->
      <g transform="translate(112.144896 284.524375) rotate(-90) scale(0.03 -0.03)">
       <use xlink:href="#DejaVuSans-31"/>
       <use xlink:href="#DejaVuSans-33" transform="translate(63.623047 0)"/>
       <use xlink:href="#DejaVuSans-31" transform="translate(127.246094 0)"/>
      </g>
     </g>
    </g>
    <g id="xtick_20">
     <g id="text_20">
      <!-- 110 -->
      <g transform="translate(115.451562 284.524375) rotate(-90) scale(0.03 -0.03)">
       <use xlink:href="#DejaVuSans-31"/>
       <use xlink:href="#DejaVuSans-31" transform="translate(63.623047 0)"/>
       <use xlink:href="#DejaVuSans-30" transform="translate(127.246094 0)"/>
      </g>
     </g>
    </g>
    <g id="xtick_21">
     <g id="text_21">
      <!-- 97 -->
      <g transform="translate(118.758229 282.615625) rotate(-90) scale(0.03 -0.03)">
       <use xlink:href="#DejaVuSans-39"/>
       <use xlink:href="#DejaVuSans-37" transform="translate(63.623047 0)"/>
      </g>
     </g>
    </g>
    <g id="xtick_22">
     <g id="text_22">
      <!-- 24 -->
      <g transform="translate(122.064896 282.615625) rotate(-90) scale(0.03 -0.03)">
       <use xlink:href="#DejaVuSans-32"/>
       <use xlink:href="#DejaVuSans-34" transform="translate(63.623047 0)"/>
      </g>
     </g>
    </g>
    <g id="xtick_23">
     <g id="text_23">
      <!-- 25 -->
      <g transform="translate(125.371562 282.615625) rotate(-90) scale(0.03 -0.03)">
       <use xlink:href="#DejaVuSans-32"/>
       <use xlink:href="#DejaVuSans-35" transform="translate(63.623047 0)"/>
      </g>
     </g>
    </g>
    <g id="xtick_24">
     <g id="text_24">
      <!-- 26 -->
      <g transform="translate(128.678229 282.615625) rotate(-90) scale(0.03 -0.03)">
       <use xlink:href="#DejaVuSans-32"/>
       <use xlink:href="#DejaVuSans-36" transform="translate(63.623047 0)"/>
      </g>
     </g>
    </g>
    <g id="xtick_25">
     <g id="text_25">
      <!-- 104 -->
      <g transform="translate(131.984896 284.524375) rotate(-90) scale(0.03 -0.03)">
       <use xlink:href="#DejaVuSans-31"/>
       <use xlink:href="#DejaVuSans-30" transform="translate(63.623047 0)"/>
       <use xlink:href="#DejaVuSans-34" transform="translate(127.246094 0)"/>
      </g>
     </g>
    </g>
    <g id="xtick_26">
     <g id="text_26">
      <!-- 70 -->
      <g transform="translate(135.291562 282.615625) rotate(-90) scale(0.03 -0.03)">
       <use xlink:href="#DejaVuSans-37"/>
       <use xlink:href="#DejaVuSans-30" transform="translate(63.623047 0)"/>
      </g>
     </g>
    </g>
    <g id="xtick_27">
     <g id="text_27">
      <!-- 118 -->
      <g transform="translate(138.598229 284.524375) rotate(-90) scale(0.03 -0.03)">
       <use xlink:href="#DejaVuSans-31"/>
       <use xlink:href="#DejaVuSans-31" transform="translate(63.623047 0)"/>
       <use xlink:href="#DejaVuSans-38" transform="translate(127.246094 0)"/>
      </g>
     </g>
    </g>
    <g id="xtick_28">
     <g id="text_28">
      <!-- 29 -->
      <g transform="translate(141.904896 282.615625) rotate(-90) scale(0.03 -0.03)">
       <use xlink:href="#DejaVuSans-32"/>
       <use xlink:href="#DejaVuSans-39" transform="translate(63.623047 0)"/>
      </g>
     </g>
    </g>
    <g id="xtick_29">
     <g id="text_29">
      <!-- 19 -->
      <g transform="translate(145.211562 282.615625) rotate(-90) scale(0.03 -0.03)">
       <use xlink:href="#DejaVuSans-31"/>
       <use xlink:href="#DejaVuSans-39" transform="translate(63.623047 0)"/>
      </g>
     </g>
    </g>
    <g id="xtick_30">
     <g id="text_30">
      <!-- 65 -->
      <g transform="translate(148.518229 282.615625) rotate(-90) scale(0.03 -0.03)">
       <use xlink:href="#DejaVuSans-36"/>
       <use xlink:href="#DejaVuSans-35" transform="translate(63.623047 0)"/>
      </g>
     </g>
    </g>
    <g id="xtick_31">
     <g id="text_31">
      <!-- 46 -->
      <g transform="translate(151.824896 282.615625) rotate(-90) scale(0.03 -0.03)">
       <use xlink:href="#DejaVuSans-34"/>
       <use xlink:href="#DejaVuSans-36" transform="translate(63.623047 0)"/>
      </g>
     </g>
    </g>
    <g id="xtick_32">
     <g id="text_32">
      <!-- 111 -->
      <g transform="translate(155.131562 284.524375) rotate(-90) scale(0.03 -0.03)">
       <use xlink:href="#DejaVuSans-31"/>
       <use xlink:href="#DejaVuSans-31" transform="translate(63.623047 0)"/>
       <use xlink:href="#DejaVuSans-31" transform="translate(127.246094 0)"/>
      </g>
     </g>
    </g>
    <g id="xtick_33">
     <g id="text_33">
      <!-- 130 -->
      <g transform="translate(158.438229 284.524375) rotate(-90) scale(0.03 -0.03)">
       <use xlink:href="#DejaVuSans-31"/>
       <use xlink:href="#DejaVuSans-33" transform="translate(63.623047 0)"/>
       <use xlink:href="#DejaVuSans-30" transform="translate(127.246094 0)"/>
      </g>
     </g>
    </g>
    <g id="xtick_34">
     <g id="text_34">
      <!-- 120 -->
      <g transform="translate(161.744896 284.524375) rotate(-90) scale(0.03 -0.03)">
       <use xlink:href="#DejaVuSans-31"/>
       <use xlink:href="#DejaVuSans-32" transform="translate(63.623047 0)"/>
       <use xlink:href="#DejaVuSans-30" transform="translate(127.246094 0)"/>
      </g>
     </g>
    </g>
    <g id="xtick_35">
     <g id="text_35">
      <!-- 129 -->
      <g transform="translate(165.051562 284.524375) rotate(-90) scale(0.03 -0.03)">
       <use xlink:href="#DejaVuSans-31"/>
       <use xlink:href="#DejaVuSans-32" transform="translate(63.623047 0)"/>
       <use xlink:href="#DejaVuSans-39" transform="translate(127.246094 0)"/>
      </g>
     </g>
    </g>
    <g id="xtick_36">
     <g id="text_36">
      <!-- 14 -->
      <g transform="translate(168.358229 282.615625) rotate(-90) scale(0.03 -0.03)">
       <use xlink:href="#DejaVuSans-31"/>
       <use xlink:href="#DejaVuSans-34" transform="translate(63.623047 0)"/>
      </g>
     </g>
    </g>
    <g id="xtick_37">
     <g id="text_37">
      <!-- 86 -->
      <g transform="translate(171.664896 282.615625) rotate(-90) scale(0.03 -0.03)">
       <use xlink:href="#DejaVuSans-38"/>
       <use xlink:href="#DejaVuSans-36" transform="translate(63.623047 0)"/>
      </g>
     </g>
    </g>
    <g id="xtick_38">
     <g id="text_38">
      <!-- 87 -->
      <g transform="translate(174.971562 282.615625) rotate(-90) scale(0.03 -0.03)">
       <use xlink:href="#DejaVuSans-38"/>
       <use xlink:href="#DejaVuSans-37" transform="translate(63.623047 0)"/>
      </g>
     </g>
    </g>
    <g id="xtick_39">
     <g id="text_39">
      <!-- 69 -->
      <g transform="translate(178.278229 282.615625) rotate(-90) scale(0.03 -0.03)">
       <use xlink:href="#DejaVuSans-36"/>
       <use xlink:href="#DejaVuSans-39" transform="translate(63.623047 0)"/>
      </g>
     </g>
    </g>
    <g id="xtick_40">
     <g id="text_40">
      <!-- 6 -->
      <g transform="translate(181.584896 280.706875) rotate(-90) scale(0.03 -0.03)">
       <use xlink:href="#DejaVuSans-36"/>
      </g>
     </g>
    </g>
    <g id="xtick_41">
     <g id="text_41">
      <!-- 33 -->
      <g transform="translate(184.891562 282.615625) rotate(-90) scale(0.03 -0.03)">
       <use xlink:href="#DejaVuSans-33"/>
       <use xlink:href="#DejaVuSans-33" transform="translate(63.623047 0)"/>
      </g>
     </g>
    </g>
    <g id="xtick_42">
     <g id="text_42">
      <!-- 56 -->
      <g transform="translate(188.198229 282.615625) rotate(-90) scale(0.03 -0.03)">
       <use xlink:href="#DejaVuSans-35"/>
       <use xlink:href="#DejaVuSans-36" transform="translate(63.623047 0)"/>
      </g>
     </g>
    </g>
    <g id="xtick_43">
     <g id="text_43">
      <!-- 83 -->
      <g transform="translate(191.504896 282.615625) rotate(-90) scale(0.03 -0.03)">
       <use xlink:href="#DejaVuSans-38"/>
       <use xlink:href="#DejaVuSans-33" transform="translate(63.623047 0)"/>
      </g>
     </g>
    </g>
    <g id="xtick_44">
     <g id="text_44">
      <!-- 57 -->
      <g transform="translate(194.811562 282.615625) rotate(-90) scale(0.03 -0.03)">
       <use xlink:href="#DejaVuSans-35"/>
       <use xlink:href="#DejaVuSans-37" transform="translate(63.623047 0)"/>
      </g>
     </g>
    </g>
    <g id="xtick_45">
     <g id="text_45">
      <!-- 39 -->
      <g transform="translate(198.118229 282.615625) rotate(-90) scale(0.03 -0.03)">
       <use xlink:href="#DejaVuSans-33"/>
       <use xlink:href="#DejaVuSans-39" transform="translate(63.623047 0)"/>
      </g>
     </g>
    </g>
    <g id="xtick_46">
     <g id="text_46">
      <!-- 134 -->
      <g transform="translate(201.424896 284.524375) rotate(-90) scale(0.03 -0.03)">
       <use xlink:href="#DejaVuSans-31"/>
       <use xlink:href="#DejaVuSans-33" transform="translate(63.623047 0)"/>
       <use xlink:href="#DejaVuSans-34" transform="translate(127.246094 0)"/>
      </g>
     </g>
    </g>
    <g id="xtick_47">
     <g id="text_47">
      <!-- 2 -->
      <g transform="translate(204.731562 280.706875) rotate(-90) scale(0.03 -0.03)">
       <use xlink:href="#DejaVuSans-32"/>
      </g>
     </g>
    </g>
    <g id="xtick_48">
     <g id="text_48">
      <!-- 43 -->
      <g transform="translate(208.038229 282.615625) rotate(-90) scale(0.03 -0.03)">
       <use xlink:href="#DejaVuSans-34"/>
       <use xlink:href="#DejaVuSans-33" transform="translate(63.623047 0)"/>
      </g>
     </g>
    </g>
    <g id="xtick_49">
     <g id="text_49">
      <!-- 21 -->
      <g transform="translate(211.344896 282.615625) rotate(-90) scale(0.03 -0.03)">
       <use xlink:href="#DejaVuSans-32"/>
       <use xlink:href="#DejaVuSans-31" transform="translate(63.623047 0)"/>
      </g>
     </g>
    </g>
    <g id="xtick_50">
     <g id="text_50">
      <!-- 7 -->
      <g transform="translate(214.651562 280.706875) rotate(-90) scale(0.03 -0.03)">
       <use xlink:href="#DejaVuSans-37"/>
      </g>
     </g>
    </g>
    <g id="xtick_51">
     <g id="text_51">
      <!-- 8 -->
      <g transform="translate(217.958229 280.706875) rotate(-90) scale(0.03 -0.03)">
       <use xlink:href="#DejaVuSans-38"/>
      </g>
     </g>
    </g>
    <g id="xtick_52">
     <g id="text_52">
      <!-- 50 -->
      <g transform="translate(221.264896 282.615625) rotate(-90) scale(0.03 -0.03)">
       <use xlink:href="#DejaVuSans-35"/>
       <use xlink:href="#DejaVuSans-30" transform="translate(63.623047 0)"/>
      </g>
     </g>
    </g>
    <g id="xtick_53">
     <g id="text_53">
      <!-- 68 -->
      <g transform="translate(224.571562 282.615625) rotate(-90) scale(0.03 -0.03)">
       <use xlink:href="#DejaVuSans-36"/>
       <use xlink:href="#DejaVuSans-38" transform="translate(63.623047 0)"/>
      </g>
     </g>
    </g>
    <g id="xtick_54">
     <g id="text_54">
      <!-- 13 -->
      <g transform="translate(227.878229 282.615625) rotate(-90) scale(0.03 -0.03)">
       <use xlink:href="#DejaVuSans-31"/>
       <use xlink:href="#DejaVuSans-33" transform="translate(63.623047 0)"/>
      </g>
     </g>
    </g>
    <g id="xtick_55">
     <g id="text_55">
      <!-- 42 -->
      <g transform="translate(231.184896 282.615625) rotate(-90) scale(0.03 -0.03)">
       <use xlink:href="#DejaVuSans-34"/>
       <use xlink:href="#DejaVuSans-32" transform="translate(63.623047 0)"/>
      </g>
     </g>
    </g>
    <g id="xtick_56">
     <g id="text_56">
      <!-- 93 -->
      <g transform="translate(234.491562 282.615625) rotate(-90) scale(0.03 -0.03)">
       <use xlink:href="#DejaVuSans-39"/>
       <use xlink:href="#DejaVuSans-33" transform="translate(63.623047 0)"/>
      </g>
     </g>
    </g>
    <g id="xtick_57">
     <g id="text_57">
      <!-- 117 -->
      <g transform="translate(237.798229 284.524375) rotate(-90) scale(0.03 -0.03)">
       <use xlink:href="#DejaVuSans-31"/>
       <use xlink:href="#DejaVuSans-31" transform="translate(63.623047 0)"/>
       <use xlink:href="#DejaVuSans-37" transform="translate(127.246094 0)"/>
      </g>
     </g>
    </g>
    <g id="xtick_58">
     <g id="text_58">
      <!-- 94 -->
      <g transform="translate(241.104896 282.615625) rotate(-90) scale(0.03 -0.03)">
       <use xlink:href="#DejaVuSans-39"/>
       <use xlink:href="#DejaVuSans-34" transform="translate(63.623047 0)"/>
      </g>
     </g>
    </g>
    <g id="xtick_59">
     <g id="text_59">
      <!-- 101 -->
      <g transform="translate(244.411562 284.524375) rotate(-90) scale(0.03 -0.03)">
       <use xlink:href="#DejaVuSans-31"/>
       <use xlink:href="#DejaVuSans-30" transform="translate(63.623047 0)"/>
       <use xlink:href="#DejaVuSans-31" transform="translate(127.246094 0)"/>
      </g>
     </g>
    </g>
    <g id="xtick_60">
     <g id="text_60">
      <!-- 113 -->
      <g transform="translate(247.718229 284.524375) rotate(-90) scale(0.03 -0.03)">
       <use xlink:href="#DejaVuSans-31"/>
       <use xlink:href="#DejaVuSans-31" transform="translate(63.623047 0)"/>
       <use xlink:href="#DejaVuSans-33" transform="translate(127.246094 0)"/>
      </g>
     </g>
    </g>
    <g id="xtick_61">
     <g id="text_61">
      <!-- 74 -->
      <g transform="translate(251.024896 282.615625) rotate(-90) scale(0.03 -0.03)">
       <use xlink:href="#DejaVuSans-37"/>
       <use xlink:href="#DejaVuSans-34" transform="translate(63.623047 0)"/>
      </g>
     </g>
    </g>
    <g id="xtick_62">
     <g id="text_62">
      <!-- 9 -->
      <g transform="translate(254.331562 280.706875) rotate(-90) scale(0.03 -0.03)">
       <use xlink:href="#DejaVuSans-39"/>
      </g>
     </g>
    </g>
    <g id="xtick_63">
     <g id="text_63">
      <!-- 72 -->
      <g transform="translate(257.638229 282.615625) rotate(-90) scale(0.03 -0.03)">
       <use xlink:href="#DejaVuSans-37"/>
       <use xlink:href="#DejaVuSans-32" transform="translate(63.623047 0)"/>
      </g>
     </g>
    </g>
    <g id="xtick_64">
     <g id="text_64">
      <!-- 55 -->
      <g transform="translate(260.944896 282.615625) rotate(-90) scale(0.03 -0.03)">
       <use xlink:href="#DejaVuSans-35"/>
       <use xlink:href="#DejaVuSans-35" transform="translate(63.623047 0)"/>
      </g>
     </g>
    </g>
    <g id="xtick_65">
     <g id="text_65">
      <!-- 115 -->
      <g transform="translate(264.251562 284.524375) rotate(-90) scale(0.03 -0.03)">
       <use xlink:href="#DejaVuSans-31"/>
       <use xlink:href="#DejaVuSans-31" transform="translate(63.623047 0)"/>
       <use xlink:href="#DejaVuSans-35" transform="translate(127.246094 0)"/>
      </g>
     </g>
    </g>
    <g id="xtick_66">
     <g id="text_66">
      <!-- 34 -->
      <g transform="translate(267.558229 282.615625) rotate(-90) scale(0.03 -0.03)">
       <use xlink:href="#DejaVuSans-33"/>
       <use xlink:href="#DejaVuSans-34" transform="translate(63.623047 0)"/>
      </g>
     </g>
    </g>
    <g id="xtick_67">
     <g id="text_67">
      <!-- 45 -->
      <g transform="translate(270.864896 282.615625) rotate(-90) scale(0.03 -0.03)">
       <use xlink:href="#DejaVuSans-34"/>
       <use xlink:href="#DejaVuSans-35" transform="translate(63.623047 0)"/>
      </g>
     </g>
    </g>
    <g id="xtick_68">
     <g id="text_68">
      <!-- 66 -->
      <g transform="translate(274.171562 282.615625) rotate(-90) scale(0.03 -0.03)">
       <use xlink:href="#DejaVuSans-36"/>
       <use xlink:href="#DejaVuSans-36" transform="translate(63.623047 0)"/>
      </g>
     </g>
    </g>
    <g id="xtick_69">
     <g id="text_69">
      <!-- 23 -->
      <g transform="translate(277.478229 282.615625) rotate(-90) scale(0.03 -0.03)">
       <use xlink:href="#DejaVuSans-32"/>
       <use xlink:href="#DejaVuSans-33" transform="translate(63.623047 0)"/>
      </g>
     </g>
    </g>
    <g id="xtick_70">
     <g id="text_70">
      <!-- 3 -->
      <g transform="translate(280.784896 280.706875) rotate(-90) scale(0.03 -0.03)">
       <use xlink:href="#DejaVuSans-33"/>
      </g>
     </g>
    </g>
    <g id="xtick_71">
     <g id="text_71">
      <!-- 64 -->
      <g transform="translate(284.091562 282.615625) rotate(-90) scale(0.03 -0.03)">
       <use xlink:href="#DejaVuSans-36"/>
       <use xlink:href="#DejaVuSans-34" transform="translate(63.623047 0)"/>
      </g>
     </g>
    </g>
    <g id="xtick_72">
     <g id="text_72">
      <!-- 30 -->
      <g transform="translate(287.398229 282.615625) rotate(-90) scale(0.03 -0.03)">
       <use xlink:href="#DejaVuSans-33"/>
       <use xlink:href="#DejaVuSans-30" transform="translate(63.623047 0)"/>
      </g>
     </g>
    </g>
    <g id="xtick_73">
     <g id="text_73">
      <!-- 116 -->
      <g transform="translate(290.704896 284.524375) rotate(-90) scale(0.03 -0.03)">
       <use xlink:href="#DejaVuSans-31"/>
       <use xlink:href="#DejaVuSans-31" transform="translate(63.623047 0)"/>
       <use xlink:href="#DejaVuSans-36" transform="translate(127.246094 0)"/>
      </g>
     </g>
    </g>
    <g id="xtick_74">
     <g id="text_74">
      <!-- 89 -->
      <g transform="translate(294.011562 282.615625) rotate(-90) scale(0.03 -0.03)">
       <use xlink:href="#DejaVuSans-38"/>
       <use xlink:href="#DejaVuSans-39" transform="translate(63.623047 0)"/>
      </g>
     </g>
    </g>
    <g id="xtick_75">
     <g id="text_75">
      <!-- 112 -->
      <g transform="translate(297.318229 284.524375) rotate(-90) scale(0.03 -0.03)">
       <use xlink:href="#DejaVuSans-31"/>
       <use xlink:href="#DejaVuSans-31" transform="translate(63.623047 0)"/>
       <use xlink:href="#DejaVuSans-32" transform="translate(127.246094 0)"/>
      </g>
     </g>
    </g>
    <g id="xtick_76">
     <g id="text_76">
      <!-- 40 -->
      <g transform="translate(300.624896 282.615625) rotate(-90) scale(0.03 -0.03)">
       <use xlink:href="#DejaVuSans-34"/>
       <use xlink:href="#DejaVuSans-30" transform="translate(63.623047 0)"/>
      </g>
     </g>
    </g>
    <g id="xtick_77">
     <g id="text_77">
      <!-- 102 -->
      <g transform="translate(303.931562 284.524375) rotate(-90) scale(0.03 -0.03)">
       <use xlink:href="#DejaVuSans-31"/>
       <use xlink:href="#DejaVuSans-30" transform="translate(63.623047 0)"/>
       <use xlink:href="#DejaVuSans-32" transform="translate(127.246094 0)"/>
      </g>
     </g>
    </g>
    <g id="xtick_78">
     <g id="text_78">
      <!-- 27 -->
      <g transform="translate(307.238229 282.615625) rotate(-90) scale(0.03 -0.03)">
       <use xlink:href="#DejaVuSans-32"/>
       <use xlink:href="#DejaVuSans-37" transform="translate(63.623047 0)"/>
      </g>
     </g>
    </g>
    <g id="xtick_79">
     <g id="text_79">
      <!-- 108 -->
      <g transform="translate(310.544896 284.524375) rotate(-90) scale(0.03 -0.03)">
       <use xlink:href="#DejaVuSans-31"/>
       <use xlink:href="#DejaVuSans-30" transform="translate(63.623047 0)"/>
       <use xlink:href="#DejaVuSans-38" transform="translate(127.246094 0)"/>
      </g>
     </g>
    </g>
    <g id="xtick_80">
     <g id="text_80">
      <!-- 106 -->
      <g transform="translate(313.851562 284.524375) rotate(-90) scale(0.03 -0.03)">
       <use xlink:href="#DejaVuSans-31"/>
       <use xlink:href="#DejaVuSans-30" transform="translate(63.623047 0)"/>
       <use xlink:href="#DejaVuSans-36" transform="translate(127.246094 0)"/>
      </g>
     </g>
    </g>
    <g id="xtick_81">
     <g id="text_81">
      <!-- 16 -->
      <g transform="translate(317.158229 282.615625) rotate(-90) scale(0.03 -0.03)">
       <use xlink:href="#DejaVuSans-31"/>
       <use xlink:href="#DejaVuSans-36" transform="translate(63.623047 0)"/>
      </g>
     </g>
    </g>
    <g id="xtick_82">
     <g id="text_82">
      <!-- 36 -->
      <g transform="translate(320.464896 282.615625) rotate(-90) scale(0.03 -0.03)">
       <use xlink:href="#DejaVuSans-33"/>
       <use xlink:href="#DejaVuSans-36" transform="translate(63.623047 0)"/>
      </g>
     </g>
    </g>
    <g id="xtick_83">
     <g id="text_83">
      <!-- 12 -->
      <g transform="translate(323.771562 282.615625) rotate(-90) scale(0.03 -0.03)">
       <use xlink:href="#DejaVuSans-31"/>
       <use xlink:href="#DejaVuSans-32" transform="translate(63.623047 0)"/>
      </g>
     </g>
    </g>
    <g id="xtick_84">
     <g id="text_84">
      <!-- 35 -->
      <g transform="translate(327.078229 282.615625) rotate(-90) scale(0.03 -0.03)">
       <use xlink:href="#DejaVuSans-33"/>
       <use xlink:href="#DejaVuSans-35" transform="translate(63.623047 0)"/>
      </g>
     </g>
    </g>
    <g id="xtick_85">
     <g id="text_85">
      <!-- 32 -->
      <g transform="translate(330.384896 282.615625) rotate(-90) scale(0.03 -0.03)">
       <use xlink:href="#DejaVuSans-33"/>
       <use xlink:href="#DejaVuSans-32" transform="translate(63.623047 0)"/>
      </g>
     </g>
    </g>
    <g id="xtick_86">
     <g id="text_86">
      <!-- 128 -->
      <g transform="translate(333.691562 284.524375) rotate(-90) scale(0.03 -0.03)">
       <use xlink:href="#DejaVuSans-31"/>
       <use xlink:href="#DejaVuSans-32" transform="translate(63.623047 0)"/>
       <use xlink:href="#DejaVuSans-38" transform="translate(127.246094 0)"/>
      </g>
     </g>
    </g>
    <g id="xtick_87">
     <g id="text_87">
      <!-- 107 -->
      <g transform="translate(336.998229 284.524375) rotate(-90) scale(0.03 -0.03)">
       <use xlink:href="#DejaVuSans-31"/>
       <use xlink:href="#DejaVuSans-30" transform="translate(63.623047 0)"/>
       <use xlink:href="#DejaVuSans-37" transform="translate(127.246094 0)"/>
      </g>
     </g>
    </g>
    <g id="xtick_88">
     <g id="text_88">
      <!-- 59 -->
      <g transform="translate(340.304896 282.615625) rotate(-90) scale(0.03 -0.03)">
       <use xlink:href="#DejaVuSans-35"/>
       <use xlink:href="#DejaVuSans-39" transform="translate(63.623047 0)"/>
      </g>
     </g>
    </g>
    <g id="xtick_89">
     <g id="text_89">
      <!-- 75 -->
      <g transform="translate(343.611562 282.615625) rotate(-90) scale(0.03 -0.03)">
       <use xlink:href="#DejaVuSans-37"/>
       <use xlink:href="#DejaVuSans-35" transform="translate(63.623047 0)"/>
      </g>
     </g>
    </g>
    <g id="xtick_90">
     <g id="text_90">
      <!-- 121 -->
      <g transform="translate(346.918229 284.524375) rotate(-90) scale(0.03 -0.03)">
       <use xlink:href="#DejaVuSans-31"/>
       <use xlink:href="#DejaVuSans-32" transform="translate(63.623047 0)"/>
       <use xlink:href="#DejaVuSans-31" transform="translate(127.246094 0)"/>
      </g>
     </g>
    </g>
    <g id="xtick_91">
     <g id="text_91">
      <!-- 41 -->
      <g transform="translate(350.224896 282.615625) rotate(-90) scale(0.03 -0.03)">
       <use xlink:href="#DejaVuSans-34"/>
       <use xlink:href="#DejaVuSans-31" transform="translate(63.623047 0)"/>
      </g>
     </g>
    </g>
    <g id="xtick_92">
     <g id="text_92">
      <!-- 100 -->
      <g transform="translate(353.531562 284.524375) rotate(-90) scale(0.03 -0.03)">
       <use xlink:href="#DejaVuSans-31"/>
       <use xlink:href="#DejaVuSans-30" transform="translate(63.623047 0)"/>
       <use xlink:href="#DejaVuSans-30" transform="translate(127.246094 0)"/>
      </g>
     </g>
    </g>
    <g id="xtick_93">
     <g id="text_93">
      <!-- 48 -->
      <g transform="translate(356.838229 282.615625) rotate(-90) scale(0.03 -0.03)">
       <use xlink:href="#DejaVuSans-34"/>
       <use xlink:href="#DejaVuSans-38" transform="translate(63.623047 0)"/>
      </g>
     </g>
    </g>
    <g id="xtick_94">
     <g id="text_94">
      <!-- 82 -->
      <g transform="translate(360.144896 282.615625) rotate(-90) scale(0.03 -0.03)">
       <use xlink:href="#DejaVuSans-38"/>
       <use xlink:href="#DejaVuSans-32" transform="translate(63.623047 0)"/>
      </g>
     </g>
    </g>
    <g id="xtick_95">
     <g id="text_95">
      <!-- 124 -->
      <g transform="translate(363.451562 284.524375) rotate(-90) scale(0.03 -0.03)">
       <use xlink:href="#DejaVuSans-31"/>
       <use xlink:href="#DejaVuSans-32" transform="translate(63.623047 0)"/>
       <use xlink:href="#DejaVuSans-34" transform="translate(127.246094 0)"/>
      </g>
     </g>
    </g>
    <g id="xtick_96">
     <g id="text_96">
      <!-- 61 -->
      <g transform="translate(366.758229 282.615625) rotate(-90) scale(0.03 -0.03)">
       <use xlink:href="#DejaVuSans-36"/>
       <use xlink:href="#DejaVuSans-31" transform="translate(63.623047 0)"/>
      </g>
     </g>
    </g>
    <g id="xtick_97">
     <g id="text_97">
      <!-- 91 -->
      <g transform="translate(370.064896 282.615625) rotate(-90) scale(0.03 -0.03)">
       <use xlink:href="#DejaVuSans-39"/>
       <use xlink:href="#DejaVuSans-31" transform="translate(63.623047 0)"/>
      </g>
     </g>
    </g>
    <g id="xtick_98">
     <g id="text_98">
      <!-- 99 -->
      <g transform="translate(373.371562 282.615625) rotate(-90) scale(0.03 -0.03)">
       <use xlink:href="#DejaVuSans-39"/>
       <use xlink:href="#DejaVuSans-39" transform="translate(63.623047 0)"/>
      </g>
     </g>
    </g>
    <g id="xtick_99">
     <g id="text_99">
      <!-- 122 -->
      <g transform="translate(376.678229 284.524375) rotate(-90) scale(0.03 -0.03)">
       <use xlink:href="#DejaVuSans-31"/>
       <use xlink:href="#DejaVuSans-32" transform="translate(63.623047 0)"/>
       <use xlink:href="#DejaVuSans-32" transform="translate(127.246094 0)"/>
      </g>
     </g>
    </g>
    <g id="xtick_100">
     <g id="text_100">
      <!-- 37 -->
      <g transform="translate(379.984896 282.615625) rotate(-90) scale(0.03 -0.03)">
       <use xlink:href="#DejaVuSans-33"/>
       <use xlink:href="#DejaVuSans-37" transform="translate(63.623047 0)"/>
      </g>
     </g>
    </g>
    <g id="xtick_101">
     <g id="text_101">
      <!-- 22 -->
      <g transform="translate(383.291562 282.615625) rotate(-90) scale(0.03 -0.03)">
       <use xlink:href="#DejaVuSans-32"/>
       <use xlink:href="#DejaVuSans-32" transform="translate(63.623047 0)"/>
      </g>
     </g>
    </g>
    <g id="xtick_102">
     <g id="text_102">
      <!-- 78 -->
      <g transform="translate(386.598229 282.615625) rotate(-90) scale(0.03 -0.03)">
       <use xlink:href="#DejaVuSans-37"/>
       <use xlink:href="#DejaVuSans-38" transform="translate(63.623047 0)"/>
      </g>
     </g>
    </g>
    <g id="xtick_103">
     <g id="text_103">
      <!-- 4 -->
      <g transform="translate(389.904896 280.706875) rotate(-90) scale(0.03 -0.03)">
       <use xlink:href="#DejaVuSans-34"/>
      </g>
     </g>
    </g>
    <g id="xtick_104">
     <g id="text_104">
      <!-- 31 -->
      <g transform="translate(393.211562 282.615625) rotate(-90) scale(0.03 -0.03)">
       <use xlink:href="#DejaVuSans-33"/>
       <use xlink:href="#DejaVuSans-31" transform="translate(63.623047 0)"/>
      </g>
     </g>
    </g>
    <g id="xtick_105">
     <g id="text_105">
      <!-- 90 -->
      <g transform="translate(396.518229 282.615625) rotate(-90) scale(0.03 -0.03)">
       <use xlink:href="#DejaVuSans-39"/>
       <use xlink:href="#DejaVuSans-30" transform="translate(63.623047 0)"/>
      </g>
     </g>
    </g>
    <g id="xtick_106">
     <g id="text_106">
      <!-- 95 -->
      <g transform="translate(399.824896 282.615625) rotate(-90) scale(0.03 -0.03)">
       <use xlink:href="#DejaVuSans-39"/>
       <use xlink:href="#DejaVuSans-35" transform="translate(63.623047 0)"/>
      </g>
     </g>
    </g>
    <g id="xtick_107">
     <g id="text_107">
      <!-- 71 -->
      <g transform="translate(403.131562 282.615625) rotate(-90) scale(0.03 -0.03)">
       <use xlink:href="#DejaVuSans-37"/>
       <use xlink:href="#DejaVuSans-31" transform="translate(63.623047 0)"/>
      </g>
     </g>
    </g>
    <g id="xtick_108">
     <g id="text_108">
      <!-- 92 -->
      <g transform="translate(406.438229 282.615625) rotate(-90) scale(0.03 -0.03)">
       <use xlink:href="#DejaVuSans-39"/>
       <use xlink:href="#DejaVuSans-32" transform="translate(63.623047 0)"/>
      </g>
     </g>
    </g>
    <g id="xtick_109">
     <g id="text_109">
      <!-- 126 -->
      <g transform="translate(409.744896 284.524375) rotate(-90) scale(0.03 -0.03)">
       <use xlink:href="#DejaVuSans-31"/>
       <use xlink:href="#DejaVuSans-32" transform="translate(63.623047 0)"/>
       <use xlink:href="#DejaVuSans-36" transform="translate(127.246094 0)"/>
      </g>
     </g>
    </g>
    <g id="xtick_110">
     <g id="text_110">
      <!-- 109 -->
      <g transform="translate(413.051562 284.524375) rotate(-90) scale(0.03 -0.03)">
       <use xlink:href="#DejaVuSans-31"/>
       <use xlink:href="#DejaVuSans-30" transform="translate(63.623047 0)"/>
       <use xlink:href="#DejaVuSans-39" transform="translate(127.246094 0)"/>
      </g>
     </g>
    </g>
    <g id="xtick_111">
     <g id="text_111">
      <!-- 105 -->
      <g transform="translate(416.358229 284.524375) rotate(-90) scale(0.03 -0.03)">
       <use xlink:href="#DejaVuSans-31"/>
       <use xlink:href="#DejaVuSans-30" transform="translate(63.623047 0)"/>
       <use xlink:href="#DejaVuSans-35" transform="translate(127.246094 0)"/>
      </g>
     </g>
    </g>
    <g id="xtick_112">
     <g id="text_112">
      <!-- 123 -->
      <g transform="translate(419.664896 284.524375) rotate(-90) scale(0.03 -0.03)">
       <use xlink:href="#DejaVuSans-31"/>
       <use xlink:href="#DejaVuSans-32" transform="translate(63.623047 0)"/>
       <use xlink:href="#DejaVuSans-33" transform="translate(127.246094 0)"/>
      </g>
     </g>
    </g>
    <g id="xtick_113">
     <g id="text_113">
      <!-- 133 -->
      <g transform="translate(422.971562 284.524375) rotate(-90) scale(0.03 -0.03)">
       <use xlink:href="#DejaVuSans-31"/>
       <use xlink:href="#DejaVuSans-33" transform="translate(63.623047 0)"/>
       <use xlink:href="#DejaVuSans-33" transform="translate(127.246094 0)"/>
      </g>
     </g>
    </g>
    <g id="xtick_114">
     <g id="text_114">
      <!-- 77 -->
      <g transform="translate(426.278229 282.615625) rotate(-90) scale(0.03 -0.03)">
       <use xlink:href="#DejaVuSans-37"/>
       <use xlink:href="#DejaVuSans-37" transform="translate(63.623047 0)"/>
      </g>
     </g>
    </g>
    <g id="xtick_115">
     <g id="text_115">
      <!-- 98 -->
      <g transform="translate(429.584896 282.615625) rotate(-90) scale(0.03 -0.03)">
       <use xlink:href="#DejaVuSans-39"/>
       <use xlink:href="#DejaVuSans-38" transform="translate(63.623047 0)"/>
      </g>
     </g>
    </g>
    <g id="xtick_116">
     <g id="text_116">
      <!-- 127 -->
      <g transform="translate(432.891562 284.524375) rotate(-90) scale(0.03 -0.03)">
       <use xlink:href="#DejaVuSans-31"/>
       <use xlink:href="#DejaVuSans-32" transform="translate(63.623047 0)"/>
       <use xlink:href="#DejaVuSans-37" transform="translate(127.246094 0)"/>
      </g>
     </g>
    </g>
    <g id="xtick_117">
     <g id="text_117">
      <!-- 54 -->
      <g transform="translate(436.198229 282.615625) rotate(-90) scale(0.03 -0.03)">
       <use xlink:href="#DejaVuSans-35"/>
       <use xlink:href="#DejaVuSans-34" transform="translate(63.623047 0)"/>
      </g>
     </g>
    </g>
    <g id="xtick_118">
     <g id="text_118">
      <!-- 53 -->
      <g transform="translate(439.504896 282.615625) rotate(-90) scale(0.03 -0.03)">
       <use xlink:href="#DejaVuSans-35"/>
       <use xlink:href="#DejaVuSans-33" transform="translate(63.623047 0)"/>
      </g>
     </g>
    </g>
    <g id="xtick_119">
     <g id="text_119">
      <!-- 76 -->
      <g transform="translate(442.811562 282.615625) rotate(-90) scale(0.03 -0.03)">
       <use xlink:href="#DejaVuSans-37"/>
       <use xlink:href="#DejaVuSans-36" transform="translate(63.623047 0)"/>
      </g>
     </g>
    </g>
    <g id="xtick_120">
     <g id="text_120">
      <!-- 81 -->
      <g transform="translate(446.118229 282.615625) rotate(-90) scale(0.03 -0.03)">
       <use xlink:href="#DejaVuSans-38"/>
       <use xlink:href="#DejaVuSans-31" transform="translate(63.623047 0)"/>
      </g>
     </g>
    </g>
    <g id="xtick_121">
     <g id="text_121">
      <!-- 119 -->
      <g transform="translate(449.424896 284.524375) rotate(-90) scale(0.03 -0.03)">
       <use xlink:href="#DejaVuSans-31"/>
       <use xlink:href="#DejaVuSans-31" transform="translate(63.623047 0)"/>
       <use xlink:href="#DejaVuSans-39" transform="translate(127.246094 0)"/>
      </g>
     </g>
    </g>
    <g id="xtick_122">
     <g id="text_122">
      <!-- 85 -->
      <g transform="translate(452.731562 282.615625) rotate(-90) scale(0.03 -0.03)">
       <use xlink:href="#DejaVuSans-38"/>
       <use xlink:href="#DejaVuSans-35" transform="translate(63.623047 0)"/>
      </g>
     </g>
    </g>
    <g id="xtick_123">
     <g id="text_123">
      <!-- 79 -->
      <g transform="translate(456.038229 282.615625) rotate(-90) scale(0.03 -0.03)">
       <use xlink:href="#DejaVuSans-37"/>
       <use xlink:href="#DejaVuSans-39" transform="translate(63.623047 0)"/>
      </g>
     </g>
    </g>
    <g id="xtick_124">
     <g id="text_124">
      <!-- 0 -->
      <g transform="translate(459.344896 280.706875) rotate(-90) scale(0.03 -0.03)">
       <use xlink:href="#DejaVuSans-30"/>
      </g>
     </g>
    </g>
    <g id="xtick_125">
     <g id="text_125">
      <!-- 88 -->
      <g transform="translate(462.651562 282.615625) rotate(-90) scale(0.03 -0.03)">
       <use xlink:href="#DejaVuSans-38"/>
       <use xlink:href="#DejaVuSans-38" transform="translate(63.623047 0)"/>
      </g>
     </g>
    </g>
    <g id="xtick_126">
     <g id="text_126">
      <!-- 58 -->
      <g transform="translate(465.958229 282.615625) rotate(-90) scale(0.03 -0.03)">
       <use xlink:href="#DejaVuSans-35"/>
       <use xlink:href="#DejaVuSans-38" transform="translate(63.623047 0)"/>
      </g>
     </g>
    </g>
    <g id="xtick_127">
     <g id="text_127">
      <!-- 103 -->
      <g transform="translate(469.264896 284.524375) rotate(-90) scale(0.03 -0.03)">
       <use xlink:href="#DejaVuSans-31"/>
       <use xlink:href="#DejaVuSans-30" transform="translate(63.623047 0)"/>
       <use xlink:href="#DejaVuSans-33" transform="translate(127.246094 0)"/>
      </g>
     </g>
    </g>
    <g id="xtick_128">
     <g id="text_128">
      <!-- 18 -->
      <g transform="translate(472.571562 282.615625) rotate(-90) scale(0.03 -0.03)">
       <use xlink:href="#DejaVuSans-31"/>
       <use xlink:href="#DejaVuSans-38" transform="translate(63.623047 0)"/>
      </g>
     </g>
    </g>
    <g id="xtick_129">
     <g id="text_129">
      <!-- 51 -->
      <g transform="translate(475.878229 282.615625) rotate(-90) scale(0.03 -0.03)">
       <use xlink:href="#DejaVuSans-35"/>
       <use xlink:href="#DejaVuSans-31" transform="translate(63.623047 0)"/>
      </g>
     </g>
    </g>
    <g id="xtick_130">
     <g id="text_130">
      <!-- 63 -->
      <g transform="translate(479.184896 282.615625) rotate(-90) scale(0.03 -0.03)">
       <use xlink:href="#DejaVuSans-36"/>
       <use xlink:href="#DejaVuSans-33" transform="translate(63.623047 0)"/>
      </g>
     </g>
    </g>
    <g id="xtick_131">
     <g id="text_131">
      <!-- 84 -->
      <g transform="translate(482.491562 282.615625) rotate(-90) scale(0.03 -0.03)">
       <use xlink:href="#DejaVuSans-38"/>
       <use xlink:href="#DejaVuSans-34" transform="translate(63.623047 0)"/>
      </g>
     </g>
    </g>
    <g id="xtick_132">
     <g id="text_132">
      <!-- 17 -->
      <g transform="translate(485.798229 282.615625) rotate(-90) scale(0.03 -0.03)">
       <use xlink:href="#DejaVuSans-31"/>
       <use xlink:href="#DejaVuSans-37" transform="translate(63.623047 0)"/>
      </g>
     </g>
    </g>
    <g id="xtick_133">
     <g id="text_133">
      <!-- 52 -->
      <g transform="translate(489.104896 282.615625) rotate(-90) scale(0.03 -0.03)">
       <use xlink:href="#DejaVuSans-35"/>
       <use xlink:href="#DejaVuSans-32" transform="translate(63.623047 0)"/>
      </g>
     </g>
    </g>
    <g id="xtick_134">
     <g id="text_134">
      <!-- 10 -->
      <g transform="translate(492.411562 282.615625) rotate(-90) scale(0.03 -0.03)">
       <use xlink:href="#DejaVuSans-31"/>
       <use xlink:href="#DejaVuSans-30" transform="translate(63.623047 0)"/>
      </g>
     </g>
    </g>
    <g id="xtick_135">
     <g id="text_135">
      <!-- 15 -->
      <g transform="translate(495.718229 282.615625) rotate(-90) scale(0.03 -0.03)">
       <use xlink:href="#DejaVuSans-31"/>
       <use xlink:href="#DejaVuSans-35" transform="translate(63.623047 0)"/>
      </g>
     </g>
    </g>
    <g id="text_136">
     <!-- Baterica ID -->
     <g transform="translate(245.640625 296.122813) scale(0.1 -0.1)">
      <defs>
       <path id="DejaVuSans-42" d="M 1259 2228 
L 1259 519 
L 2272 519 
Q 2781 519 3026 730 
Q 3272 941 3272 1375 
Q 3272 1813 3026 2020 
Q 2781 2228 2272 2228 
L 1259 2228 
z
M 1259 4147 
L 1259 2741 
L 2194 2741 
Q 2656 2741 2882 2914 
Q 3109 3088 3109 3444 
Q 3109 3797 2882 3972 
Q 2656 4147 2194 4147 
L 1259 4147 
z
M 628 4666 
L 2241 4666 
Q 2963 4666 3353 4366 
Q 3744 4066 3744 3513 
Q 3744 3084 3544 2831 
Q 3344 2578 2956 2516 
Q 3422 2416 3680 2098 
Q 3938 1781 3938 1306 
Q 3938 681 3513 340 
Q 3088 0 2303 0 
L 628 0 
L 628 4666 
z
" transform="scale(0.015625)"/>
       <path id="DejaVuSans-61" d="M 2194 1759 
Q 1497 1759 1228 1600 
Q 959 1441 959 1056 
Q 959 750 1161 570 
Q 1363 391 1709 391 
Q 2188 391 2477 730 
Q 2766 1069 2766 1631 
L 2766 1759 
L 2194 1759 
z
M 3341 1997 
L 3341 0 
L 2766 0 
L 2766 531 
Q 2569 213 2275 61 
Q 1981 -91 1556 -91 
Q 1019 -91 701 211 
Q 384 513 384 1019 
Q 384 1609 779 1909 
Q 1175 2209 1959 2209 
L 2766 2209 
L 2766 2266 
Q 2766 2663 2505 2880 
Q 2244 3097 1772 3097 
Q 1472 3097 1187 3025 
Q 903 2953 641 2809 
L 641 3341 
Q 956 3463 1253 3523 
Q 1550 3584 1831 3584 
Q 2591 3584 2966 3190 
Q 3341 2797 3341 1997 
z
" transform="scale(0.015625)"/>
       <path id="DejaVuSans-74" d="M 1172 4494 
L 1172 3500 
L 2356 3500 
L 2356 3053 
L 1172 3053 
L 1172 1153 
Q 1172 725 1289 603 
Q 1406 481 1766 481 
L 2356 481 
L 2356 0 
L 1766 0 
Q 1100 0 847 248 
Q 594 497 594 1153 
L 594 3053 
L 172 3053 
L 172 3500 
L 594 3500 
L 594 4494 
L 1172 4494 
z
" transform="scale(0.015625)"/>
       <path id="DejaVuSans-65" d="M 3597 1894 
L 3597 1613 
L 953 1613 
Q 991 1019 1311 708 
Q 1631 397 2203 397 
Q 2534 397 2845 478 
Q 3156 559 3463 722 
L 3463 178 
Q 3153 47 2828 -22 
Q 2503 -91 2169 -91 
Q 1331 -91 842 396 
Q 353 884 353 1716 
Q 353 2575 817 3079 
Q 1281 3584 2069 3584 
Q 2775 3584 3186 3129 
Q 3597 2675 3597 1894 
z
M 3022 2063 
Q 3016 2534 2758 2815 
Q 2500 3097 2075 3097 
Q 1594 3097 1305 2825 
Q 1016 2553 972 2059 
L 3022 2063 
z
" transform="scale(0.015625)"/>
       <path id="DejaVuSans-72" d="M 2631 2963 
Q 2534 3019 2420 3045 
Q 2306 3072 2169 3072 
Q 1681 3072 1420 2755 
Q 1159 2438 1159 1844 
L 1159 0 
L 581 0 
L 581 3500 
L 1159 3500 
L 1159 2956 
Q 1341 3275 1631 3429 
Q 1922 3584 2338 3584 
Q 2397 3584 2469 3576 
Q 2541 3569 2628 3553 
L 2631 2963 
z
" transform="scale(0.015625)"/>
       <path id="DejaVuSans-69" d="M 603 3500 
L 1178 3500 
L 1178 0 
L 603 0 
L 603 3500 
z
M 603 4863 
L 1178 4863 
L 1178 4134 
L 603 4134 
L 603 4863 
z
" transform="scale(0.015625)"/>
       <path id="DejaVuSans-63" d="M 3122 3366 
L 3122 2828 
Q 2878 2963 2633 3030 
Q 2388 3097 2138 3097 
Q 1578 3097 1268 2742 
Q 959 2388 959 1747 
Q 959 1106 1268 751 
Q 1578 397 2138 397 
Q 2388 397 2633 464 
Q 2878 531 3122 666 
L 3122 134 
Q 2881 22 2623 -34 
Q 2366 -91 2075 -91 
Q 1284 -91 818 406 
Q 353 903 353 1747 
Q 353 2603 823 3093 
Q 1294 3584 2113 3584 
Q 2378 3584 2631 3529 
Q 2884 3475 3122 3366 
z
" transform="scale(0.015625)"/>
       <path id="DejaVuSans-20" transform="scale(0.015625)"/>
       <path id="DejaVuSans-49" d="M 628 4666 
L 1259 4666 
L 1259 0 
L 628 0 
L 628 4666 
z
" transform="scale(0.015625)"/>
       <path id="DejaVuSans-44" d="M 1259 4147 
L 1259 519 
L 2022 519 
Q 2988 519 3436 956 
Q 3884 1394 3884 2338 
Q 3884 3275 3436 3711 
Q 2988 4147 2022 4147 
L 1259 4147 
z
M 628 4666 
L 1925 4666 
Q 3281 4666 3915 4102 
Q 4550 3538 4550 2338 
Q 4550 1131 3912 565 
Q 3275 0 1925 0 
L 628 0 
L 628 4666 
z
" transform="scale(0.015625)"/>
      </defs>
      <use xlink:href="#DejaVuSans-42"/>
      <use xlink:href="#DejaVuSans-61" transform="translate(68.603516 0)"/>
      <use xlink:href="#DejaVuSans-74" transform="translate(129.882812 0)"/>
      <use xlink:href="#DejaVuSans-65" transform="translate(169.091797 0)"/>
      <use xlink:href="#DejaVuSans-72" transform="translate(230.615234 0)"/>
      <use xlink:href="#DejaVuSans-69" transform="translate(271.728516 0)"/>
      <use xlink:href="#DejaVuSans-63" transform="translate(299.511719 0)"/>
      <use xlink:href="#DejaVuSans-61" transform="translate(354.492188 0)"/>
      <use xlink:href="#DejaVuSans-20" transform="translate(415.771484 0)"/>
      <use xlink:href="#DejaVuSans-49" transform="translate(447.558594 0)"/>
      <use xlink:href="#DejaVuSans-44" transform="translate(477.050781 0)"/>
     </g>
    </g>
   </g>
   <g id="matplotlib.axis_2">
    <g id="ytick_1">
     <g id="line2d_1">
      <defs>
       <path id="mc918fd4f66" d="M 0 0 
L -3.5 0 
" style="stroke: #000000; stroke-width: 0.8"/>
      </defs>
      <g>
       <use xlink:href="#mc918fd4f66" x="50.14375" y="271.798125" style="stroke: #000000; stroke-width: 0.8"/>
      </g>
     </g>
     <g id="text_137">
      <!-- 0.00 -->
      <g transform="translate(20.878125 275.597344) scale(0.1 -0.1)">
       <defs>
        <path id="DejaVuSans-2e" d="M 684 794 
L 1344 794 
L 1344 0 
L 684 0 
L 684 794 
z
" transform="scale(0.015625)"/>
       </defs>
       <use xlink:href="#DejaVuSans-30"/>
       <use xlink:href="#DejaVuSans-2e" transform="translate(63.623047 0)"/>
       <use xlink:href="#DejaVuSans-30" transform="translate(95.410156 0)"/>
       <use xlink:href="#DejaVuSans-30" transform="translate(159.033203 0)"/>
      </g>
     </g>
    </g>
    <g id="ytick_2">
     <g id="line2d_2">
      <g>
       <use xlink:href="#mc918fd4f66" x="50.14375" y="240.457081" style="stroke: #000000; stroke-width: 0.8"/>
      </g>
     </g>
     <g id="text_138">
      <!-- 0.05 -->
      <g transform="translate(20.878125 244.2563) scale(0.1 -0.1)">
       <use xlink:href="#DejaVuSans-30"/>
       <use xlink:href="#DejaVuSans-2e" transform="translate(63.623047 0)"/>
       <use xlink:href="#DejaVuSans-30" transform="translate(95.410156 0)"/>
       <use xlink:href="#DejaVuSans-35" transform="translate(159.033203 0)"/>
      </g>
     </g>
    </g>
    <g id="ytick_3">
     <g id="line2d_3">
      <g>
       <use xlink:href="#mc918fd4f66" x="50.14375" y="209.116037" style="stroke: #000000; stroke-width: 0.8"/>
      </g>
     </g>
     <g id="text_139">
      <!-- 0.10 -->
      <g transform="translate(20.878125 212.915256) scale(0.1 -0.1)">
       <use xlink:href="#DejaVuSans-30"/>
       <use xlink:href="#DejaVuSans-2e" transform="translate(63.623047 0)"/>
       <use xlink:href="#DejaVuSans-31" transform="translate(95.410156 0)"/>
       <use xlink:href="#DejaVuSans-30" transform="translate(159.033203 0)"/>
      </g>
     </g>
    </g>
    <g id="ytick_4">
     <g id="line2d_4">
      <g>
       <use xlink:href="#mc918fd4f66" x="50.14375" y="177.774993" style="stroke: #000000; stroke-width: 0.8"/>
      </g>
     </g>
     <g id="text_140">
      <!-- 0.15 -->
      <g transform="translate(20.878125 181.574212) scale(0.1 -0.1)">
       <use xlink:href="#DejaVuSans-30"/>
       <use xlink:href="#DejaVuSans-2e" transform="translate(63.623047 0)"/>
       <use xlink:href="#DejaVuSans-31" transform="translate(95.410156 0)"/>
       <use xlink:href="#DejaVuSans-35" transform="translate(159.033203 0)"/>
      </g>
     </g>
    </g>
    <g id="ytick_5">
     <g id="line2d_5">
      <g>
       <use xlink:href="#mc918fd4f66" x="50.14375" y="146.433949" style="stroke: #000000; stroke-width: 0.8"/>
      </g>
     </g>
     <g id="text_141">
      <!-- 0.20 -->
      <g transform="translate(20.878125 150.233168) scale(0.1 -0.1)">
       <use xlink:href="#DejaVuSans-30"/>
       <use xlink:href="#DejaVuSans-2e" transform="translate(63.623047 0)"/>
       <use xlink:href="#DejaVuSans-32" transform="translate(95.410156 0)"/>
       <use xlink:href="#DejaVuSans-30" transform="translate(159.033203 0)"/>
      </g>
     </g>
    </g>
    <g id="ytick_6">
     <g id="line2d_6">
      <g>
       <use xlink:href="#mc918fd4f66" x="50.14375" y="115.092905" style="stroke: #000000; stroke-width: 0.8"/>
      </g>
     </g>
     <g id="text_142">
      <!-- 0.25 -->
      <g transform="translate(20.878125 118.892124) scale(0.1 -0.1)">
       <use xlink:href="#DejaVuSans-30"/>
       <use xlink:href="#DejaVuSans-2e" transform="translate(63.623047 0)"/>
       <use xlink:href="#DejaVuSans-32" transform="translate(95.410156 0)"/>
       <use xlink:href="#DejaVuSans-35" transform="translate(159.033203 0)"/>
      </g>
     </g>
    </g>
    <g id="ytick_7">
     <g id="line2d_7">
      <g>
       <use xlink:href="#mc918fd4f66" x="50.14375" y="83.751861" style="stroke: #000000; stroke-width: 0.8"/>
      </g>
     </g>
     <g id="text_143">
      <!-- 0.30 -->
      <g transform="translate(20.878125 87.55108) scale(0.1 -0.1)">
       <use xlink:href="#DejaVuSans-30"/>
       <use xlink:href="#DejaVuSans-2e" transform="translate(63.623047 0)"/>
       <use xlink:href="#DejaVuSans-33" transform="translate(95.410156 0)"/>
       <use xlink:href="#DejaVuSans-30" transform="translate(159.033203 0)"/>
      </g>
     </g>
    </g>
    <g id="ytick_8">
     <g id="line2d_8">
      <g>
       <use xlink:href="#mc918fd4f66" x="50.14375" y="52.410817" style="stroke: #000000; stroke-width: 0.8"/>
      </g>
     </g>
     <g id="text_144">
      <!-- 0.35 -->
      <g transform="translate(20.878125 56.210036) scale(0.1 -0.1)">
       <use xlink:href="#DejaVuSans-30"/>
       <use xlink:href="#DejaVuSans-2e" transform="translate(63.623047 0)"/>
       <use xlink:href="#DejaVuSans-33" transform="translate(95.410156 0)"/>
       <use xlink:href="#DejaVuSans-35" transform="translate(159.033203 0)"/>
      </g>
     </g>
    </g>
    <g id="text_145">
     <!-- Distance -->
     <g transform="translate(14.798437 168.920625) rotate(-90) scale(0.1 -0.1)">
      <defs>
       <path id="DejaVuSans-73" d="M 2834 3397 
L 2834 2853 
Q 2591 2978 2328 3040 
Q 2066 3103 1784 3103 
Q 1356 3103 1142 2972 
Q 928 2841 928 2578 
Q 928 2378 1081 2264 
Q 1234 2150 1697 2047 
L 1894 2003 
Q 2506 1872 2764 1633 
Q 3022 1394 3022 966 
Q 3022 478 2636 193 
Q 2250 -91 1575 -91 
Q 1294 -91 989 -36 
Q 684 19 347 128 
L 347 722 
Q 666 556 975 473 
Q 1284 391 1588 391 
Q 1994 391 2212 530 
Q 2431 669 2431 922 
Q 2431 1156 2273 1281 
Q 2116 1406 1581 1522 
L 1381 1569 
Q 847 1681 609 1914 
Q 372 2147 372 2553 
Q 372 3047 722 3315 
Q 1072 3584 1716 3584 
Q 2034 3584 2315 3537 
Q 2597 3491 2834 3397 
z
" transform="scale(0.015625)"/>
       <path id="DejaVuSans-6e" d="M 3513 2113 
L 3513 0 
L 2938 0 
L 2938 2094 
Q 2938 2591 2744 2837 
Q 2550 3084 2163 3084 
Q 1697 3084 1428 2787 
Q 1159 2491 1159 1978 
L 1159 0 
L 581 0 
L 581 3500 
L 1159 3500 
L 1159 2956 
Q 1366 3272 1645 3428 
Q 1925 3584 2291 3584 
Q 2894 3584 3203 3211 
Q 3513 2838 3513 2113 
z
" transform="scale(0.015625)"/>
      </defs>
      <use xlink:href="#DejaVuSans-44"/>
      <use xlink:href="#DejaVuSans-69" transform="translate(77.001953 0)"/>
      <use xlink:href="#DejaVuSans-73" transform="translate(104.785156 0)"/>
      <use xlink:href="#DejaVuSans-74" transform="translate(156.884766 0)"/>
      <use xlink:href="#DejaVuSans-61" transform="translate(196.09375 0)"/>
      <use xlink:href="#DejaVuSans-6e" transform="translate(257.373047 0)"/>
      <use xlink:href="#DejaVuSans-63" transform="translate(320.751953 0)"/>
      <use xlink:href="#DejaVuSans-65" transform="translate(375.732422 0)"/>
     </g>
    </g>
   </g>
   <g id="LineCollection_1">
    <path d="M 170.837083 271.798125 
L 170.837083 265.204596 
L 174.14375 265.204596 
L 174.14375 271.798125 
" clip-path="url(#p1e7fade22d)" style="fill: none; stroke: #1f77b4; stroke-width: 1.5"/>
    <path d="M 167.530417 271.798125 
L 167.530417 260.810268 
L 172.490417 260.810268 
L 172.490417 265.204596 
" clip-path="url(#p1e7fade22d)" style="fill: none; stroke: #1f77b4; stroke-width: 1.5"/>
    <path d="M 164.22375 271.798125 
L 164.22375 258.802039 
L 170.010417 258.802039 
L 170.010417 260.810268 
" clip-path="url(#p1e7fade22d)" style="fill: none; stroke: #1f77b4; stroke-width: 1.5"/>
    <path d="M 160.917083 271.798125 
L 160.917083 257.564433 
L 167.117083 257.564433 
L 167.117083 258.802039 
" clip-path="url(#p1e7fade22d)" style="fill: none; stroke: #1f77b4; stroke-width: 1.5"/>
    <path d="M 157.610417 271.798125 
L 157.610417 256.437754 
L 164.017083 256.437754 
L 164.017083 257.564433 
" clip-path="url(#p1e7fade22d)" style="fill: none; stroke: #1f77b4; stroke-width: 1.5"/>
    <path d="M 154.30375 271.798125 
L 154.30375 254.549268 
L 160.81375 254.549268 
L 160.81375 256.437754 
" clip-path="url(#p1e7fade22d)" style="fill: none; stroke: #1f77b4; stroke-width: 1.5"/>
    <path d="M 150.997083 271.798125 
L 150.997083 253.946983 
L 157.55875 253.946983 
L 157.55875 254.549268 
" clip-path="url(#p1e7fade22d)" style="fill: none; stroke: #1f77b4; stroke-width: 1.5"/>
    <path d="M 147.690417 271.798125 
L 147.690417 252.246955 
L 154.277917 252.246955 
L 154.277917 253.946983 
" clip-path="url(#p1e7fade22d)" style="fill: none; stroke: #1f77b4; stroke-width: 1.5"/>
    <path d="M 144.38375 271.798125 
L 144.38375 251.10642 
L 150.984167 251.10642 
L 150.984167 252.246955 
" clip-path="url(#p1e7fade22d)" style="fill: none; stroke: #1f77b4; stroke-width: 1.5"/>
    <path d="M 141.077083 271.798125 
L 141.077083 250.170423 
L 147.683958 250.170423 
L 147.683958 251.10642 
" clip-path="url(#p1e7fade22d)" style="fill: none; stroke: #1f77b4; stroke-width: 1.5"/>
    <path d="M 137.770417 271.798125 
L 137.770417 247.739087 
L 144.380521 247.739087 
L 144.380521 250.170423 
" clip-path="url(#p1e7fade22d)" style="fill: none; stroke: #1f77b4; stroke-width: 1.5"/>
    <path d="M 134.46375 271.798125 
L 134.46375 244.951282 
L 141.075469 244.951282 
L 141.075469 247.739087 
" clip-path="url(#p1e7fade22d)" style="fill: none; stroke: #1f77b4; stroke-width: 1.5"/>
    <path d="M 131.157083 271.798125 
L 131.157083 243.557337 
L 137.769609 243.557337 
L 137.769609 244.951282 
" clip-path="url(#p1e7fade22d)" style="fill: none; stroke: #1f77b4; stroke-width: 1.5"/>
    <path d="M 127.850417 271.798125 
L 127.850417 241.447548 
L 134.463346 241.447548 
L 134.463346 243.557337 
" clip-path="url(#p1e7fade22d)" style="fill: none; stroke: #1f77b4; stroke-width: 1.5"/>
    <path d="M 124.54375 271.798125 
L 124.54375 240.82047 
L 131.156882 240.82047 
L 131.156882 241.447548 
" clip-path="url(#p1e7fade22d)" style="fill: none; stroke: #1f77b4; stroke-width: 1.5"/>
    <path d="M 121.237083 271.798125 
L 121.237083 239.802092 
L 127.850316 239.802092 
L 127.850316 240.82047 
" clip-path="url(#p1e7fade22d)" style="fill: none; stroke: #1f77b4; stroke-width: 1.5"/>
    <path d="M 117.930417 271.798125 
L 117.930417 238.883134 
L 124.5437 238.883134 
L 124.5437 239.802092 
" clip-path="url(#p1e7fade22d)" style="fill: none; stroke: #1f77b4; stroke-width: 1.5"/>
    <path d="M 114.62375 271.798125 
L 114.62375 238.305936 
L 121.237058 238.305936 
L 121.237058 238.883134 
" clip-path="url(#p1e7fade22d)" style="fill: none; stroke: #1f77b4; stroke-width: 1.5"/>
    <path d="M 111.317083 271.798125 
L 111.317083 237.375564 
L 117.930404 237.375564 
L 117.930404 238.305936 
" clip-path="url(#p1e7fade22d)" style="fill: none; stroke: #1f77b4; stroke-width: 1.5"/>
    <path d="M 108.010417 271.798125 
L 108.010417 237.005774 
L 114.623744 237.005774 
L 114.623744 237.375564 
" clip-path="url(#p1e7fade22d)" style="fill: none; stroke: #1f77b4; stroke-width: 1.5"/>
    <path d="M 104.70375 271.798125 
L 104.70375 235.753149 
L 111.31708 235.753149 
L 111.31708 237.005774 
" clip-path="url(#p1e7fade22d)" style="fill: none; stroke: #1f77b4; stroke-width: 1.5"/>
    <path d="M 101.397083 271.798125 
L 101.397083 235.042089 
L 108.010415 235.042089 
L 108.010415 235.753149 
" clip-path="url(#p1e7fade22d)" style="fill: none; stroke: #1f77b4; stroke-width: 1.5"/>
    <path d="M 98.090417 271.798125 
L 98.090417 232.382593 
L 104.703749 232.382593 
L 104.703749 235.042089 
" clip-path="url(#p1e7fade22d)" style="fill: none; stroke: #1f77b4; stroke-width: 1.5"/>
    <path d="M 94.78375 271.798125 
L 94.78375 230.81177 
L 101.397083 230.81177 
L 101.397083 232.382593 
" clip-path="url(#p1e7fade22d)" style="fill: none; stroke: #1f77b4; stroke-width: 1.5"/>
    <path d="M 91.477083 271.798125 
L 91.477083 230.165159 
L 98.090416 230.165159 
L 98.090416 230.81177 
" clip-path="url(#p1e7fade22d)" style="fill: none; stroke: #1f77b4; stroke-width: 1.5"/>
    <path d="M 88.170417 271.798125 
L 88.170417 228.609226 
L 94.78375 228.609226 
L 94.78375 230.165159 
" clip-path="url(#p1e7fade22d)" style="fill: none; stroke: #1f77b4; stroke-width: 1.5"/>
    <path d="M 84.86375 271.798125 
L 84.86375 226.251695 
L 91.477083 226.251695 
L 91.477083 228.609226 
" clip-path="url(#p1e7fade22d)" style="fill: none; stroke: #1f77b4; stroke-width: 1.5"/>
    <path d="M 81.557083 271.798125 
L 81.557083 225.003887 
L 88.170417 225.003887 
L 88.170417 226.251695 
" clip-path="url(#p1e7fade22d)" style="fill: none; stroke: #1f77b4; stroke-width: 1.5"/>
    <path d="M 78.250417 271.798125 
L 78.250417 222.966401 
L 84.86375 222.966401 
L 84.86375 225.003887 
" clip-path="url(#p1e7fade22d)" style="fill: none; stroke: #1f77b4; stroke-width: 1.5"/>
    <path d="M 74.94375 271.798125 
L 74.94375 219.619027 
L 81.557083 219.619027 
L 81.557083 222.966401 
" clip-path="url(#p1e7fade22d)" style="fill: none; stroke: #1f77b4; stroke-width: 1.5"/>
    <path d="M 71.637083 271.798125 
L 71.637083 217.356528 
L 78.250417 217.356528 
L 78.250417 219.619027 
" clip-path="url(#p1e7fade22d)" style="fill: none; stroke: #1f77b4; stroke-width: 1.5"/>
    <path d="M 68.330417 271.798125 
L 68.330417 211.489494 
L 74.94375 211.489494 
L 74.94375 217.356528 
" clip-path="url(#p1e7fade22d)" style="fill: none; stroke: #1f77b4; stroke-width: 1.5"/>
    <path d="M 65.02375 271.798125 
L 65.02375 206.334643 
L 71.637083 206.334643 
L 71.637083 211.489494 
" clip-path="url(#p1e7fade22d)" style="fill: none; stroke: #1f77b4; stroke-width: 1.5"/>
    <path d="M 491.58375 271.798125 
L 491.58375 266.225687 
L 494.890417 266.225687 
L 494.890417 271.798125 
" clip-path="url(#p1e7fade22d)" style="fill: none; stroke: #1f77b4; stroke-width: 1.5"/>
    <path d="M 488.277083 271.798125 
L 488.277083 263.329148 
L 493.237083 263.329148 
L 493.237083 266.225687 
" clip-path="url(#p1e7fade22d)" style="fill: none; stroke: #1f77b4; stroke-width: 1.5"/>
    <path d="M 484.970417 271.798125 
L 484.970417 261.611868 
L 490.757083 261.611868 
L 490.757083 263.329148 
" clip-path="url(#p1e7fade22d)" style="fill: none; stroke: #1f77b4; stroke-width: 1.5"/>
    <path d="M 481.66375 271.798125 
L 481.66375 260.497955 
L 487.86375 260.497955 
L 487.86375 261.611868 
" clip-path="url(#p1e7fade22d)" style="fill: none; stroke: #1f77b4; stroke-width: 1.5"/>
    <path d="M 478.357083 271.798125 
L 478.357083 259.815692 
L 484.76375 259.815692 
L 484.76375 260.497955 
" clip-path="url(#p1e7fade22d)" style="fill: none; stroke: #1f77b4; stroke-width: 1.5"/>
    <path d="M 475.050417 271.798125 
L 475.050417 259.308615 
L 481.560417 259.308615 
L 481.560417 259.815692 
" clip-path="url(#p1e7fade22d)" style="fill: none; stroke: #1f77b4; stroke-width: 1.5"/>
    <path d="M 471.74375 271.798125 
L 471.74375 258.001081 
L 478.305417 258.001081 
L 478.305417 259.308615 
" clip-path="url(#p1e7fade22d)" style="fill: none; stroke: #1f77b4; stroke-width: 1.5"/>
    <path d="M 468.437083 271.798125 
L 468.437083 256.306952 
L 475.024583 256.306952 
L 475.024583 258.001081 
" clip-path="url(#p1e7fade22d)" style="fill: none; stroke: #1f77b4; stroke-width: 1.5"/>
    <path d="M 465.130417 271.798125 
L 465.130417 255.434548 
L 471.730833 255.434548 
L 471.730833 256.306952 
" clip-path="url(#p1e7fade22d)" style="fill: none; stroke: #1f77b4; stroke-width: 1.5"/>
    <path d="M 461.82375 271.798125 
L 461.82375 254.368242 
L 468.430625 254.368242 
L 468.430625 255.434548 
" clip-path="url(#p1e7fade22d)" style="fill: none; stroke: #1f77b4; stroke-width: 1.5"/>
    <path d="M 458.517083 271.798125 
L 458.517083 253.531653 
L 465.127187 253.531653 
L 465.127187 254.368242 
" clip-path="url(#p1e7fade22d)" style="fill: none; stroke: #1f77b4; stroke-width: 1.5"/>
    <path d="M 455.210417 271.798125 
L 455.210417 253.114162 
L 461.822135 253.114162 
L 461.822135 253.531653 
" clip-path="url(#p1e7fade22d)" style="fill: none; stroke: #1f77b4; stroke-width: 1.5"/>
    <path d="M 451.90375 271.798125 
L 451.90375 252.677774 
L 458.516276 252.677774 
L 458.516276 253.114162 
" clip-path="url(#p1e7fade22d)" style="fill: none; stroke: #1f77b4; stroke-width: 1.5"/>
    <path d="M 448.597083 271.798125 
L 448.597083 252.13153 
L 455.210013 252.13153 
L 455.210013 252.677774 
" clip-path="url(#p1e7fade22d)" style="fill: none; stroke: #1f77b4; stroke-width: 1.5"/>
    <path d="M 445.290417 271.798125 
L 445.290417 251.695018 
L 451.903548 251.695018 
L 451.903548 252.13153 
" clip-path="url(#p1e7fade22d)" style="fill: none; stroke: #1f77b4; stroke-width: 1.5"/>
    <path d="M 441.98375 271.798125 
L 441.98375 251.016701 
L 448.596982 251.016701 
L 448.596982 251.695018 
" clip-path="url(#p1e7fade22d)" style="fill: none; stroke: #1f77b4; stroke-width: 1.5"/>
    <path d="M 438.677083 271.798125 
L 438.677083 250.733183 
L 445.290366 250.733183 
L 445.290366 251.016701 
" clip-path="url(#p1e7fade22d)" style="fill: none; stroke: #1f77b4; stroke-width: 1.5"/>
    <path d="M 435.370417 271.798125 
L 435.370417 250.045212 
L 441.983725 250.045212 
L 441.983725 250.733183 
" clip-path="url(#p1e7fade22d)" style="fill: none; stroke: #1f77b4; stroke-width: 1.5"/>
    <path d="M 432.06375 271.798125 
L 432.06375 249.681641 
L 438.677071 249.681641 
L 438.677071 250.045212 
" clip-path="url(#p1e7fade22d)" style="fill: none; stroke: #1f77b4; stroke-width: 1.5"/>
    <path d="M 428.757083 271.798125 
L 428.757083 249.435287 
L 435.37041 249.435287 
L 435.37041 249.681641 
" clip-path="url(#p1e7fade22d)" style="fill: none; stroke: #1f77b4; stroke-width: 1.5"/>
    <path d="M 425.450417 271.798125 
L 425.450417 249.149743 
L 432.063747 249.149743 
L 432.063747 249.435287 
" clip-path="url(#p1e7fade22d)" style="fill: none; stroke: #1f77b4; stroke-width: 1.5"/>
    <path d="M 422.14375 271.798125 
L 422.14375 248.85574 
L 428.757082 248.85574 
L 428.757082 249.149743 
" clip-path="url(#p1e7fade22d)" style="fill: none; stroke: #1f77b4; stroke-width: 1.5"/>
    <path d="M 418.837083 271.798125 
L 418.837083 248.16785 
L 425.450416 248.16785 
L 425.450416 248.85574 
" clip-path="url(#p1e7fade22d)" style="fill: none; stroke: #1f77b4; stroke-width: 1.5"/>
    <path d="M 415.530417 271.798125 
L 415.530417 247.934323 
L 422.14375 247.934323 
L 422.14375 248.16785 
" clip-path="url(#p1e7fade22d)" style="fill: none; stroke: #1f77b4; stroke-width: 1.5"/>
    <path d="M 412.22375 271.798125 
L 412.22375 247.557056 
L 418.837083 247.557056 
L 418.837083 247.934323 
" clip-path="url(#p1e7fade22d)" style="fill: none; stroke: #1f77b4; stroke-width: 1.5"/>
    <path d="M 408.917083 271.798125 
L 408.917083 247.39987 
L 415.530417 247.39987 
L 415.530417 247.557056 
" clip-path="url(#p1e7fade22d)" style="fill: none; stroke: #1f77b4; stroke-width: 1.5"/>
    <path d="M 405.610417 271.798125 
L 405.610417 246.433516 
L 412.22375 246.433516 
L 412.22375 247.39987 
" clip-path="url(#p1e7fade22d)" style="fill: none; stroke: #1f77b4; stroke-width: 1.5"/>
    <path d="M 402.30375 271.798125 
L 402.30375 246.262808 
L 408.917083 246.262808 
L 408.917083 246.433516 
" clip-path="url(#p1e7fade22d)" style="fill: none; stroke: #1f77b4; stroke-width: 1.5"/>
    <path d="M 398.997083 271.798125 
L 398.997083 246.004597 
L 405.610417 246.004597 
L 405.610417 246.262808 
" clip-path="url(#p1e7fade22d)" style="fill: none; stroke: #1f77b4; stroke-width: 1.5"/>
    <path d="M 395.690417 271.798125 
L 395.690417 245.673317 
L 402.30375 245.673317 
L 402.30375 246.004597 
" clip-path="url(#p1e7fade22d)" style="fill: none; stroke: #1f77b4; stroke-width: 1.5"/>
    <path d="M 392.38375 271.798125 
L 392.38375 245.410179 
L 398.997083 245.410179 
L 398.997083 245.673317 
" clip-path="url(#p1e7fade22d)" style="fill: none; stroke: #1f77b4; stroke-width: 1.5"/>
    <path d="M 389.077083 271.798125 
L 389.077083 244.884062 
L 395.690417 244.884062 
L 395.690417 245.410179 
" clip-path="url(#p1e7fade22d)" style="fill: none; stroke: #1f77b4; stroke-width: 1.5"/>
    <path d="M 385.770417 271.798125 
L 385.770417 244.438628 
L 392.38375 244.438628 
L 392.38375 244.884062 
" clip-path="url(#p1e7fade22d)" style="fill: none; stroke: #1f77b4; stroke-width: 1.5"/>
    <path d="M 382.46375 271.798125 
L 382.46375 243.947847 
L 389.077083 243.947847 
L 389.077083 244.438628 
" clip-path="url(#p1e7fade22d)" style="fill: none; stroke: #1f77b4; stroke-width: 1.5"/>
    <path d="M 379.157083 271.798125 
L 379.157083 243.601841 
L 385.770417 243.601841 
L 385.770417 243.947847 
" clip-path="url(#p1e7fade22d)" style="fill: none; stroke: #1f77b4; stroke-width: 1.5"/>
    <path d="M 375.850417 271.798125 
L 375.850417 243.289006 
L 382.46375 243.289006 
L 382.46375 243.601841 
" clip-path="url(#p1e7fade22d)" style="fill: none; stroke: #1f77b4; stroke-width: 1.5"/>
    <path d="M 372.54375 271.798125 
L 372.54375 243.06574 
L 379.157083 243.06574 
L 379.157083 243.289006 
" clip-path="url(#p1e7fade22d)" style="fill: none; stroke: #1f77b4; stroke-width: 1.5"/>
    <path d="M 369.237083 271.798125 
L 369.237083 242.610887 
L 375.850417 242.610887 
L 375.850417 243.06574 
" clip-path="url(#p1e7fade22d)" style="fill: none; stroke: #1f77b4; stroke-width: 1.5"/>
    <path d="M 365.930417 271.798125 
L 365.930417 242.445775 
L 372.54375 242.445775 
L 372.54375 242.610887 
" clip-path="url(#p1e7fade22d)" style="fill: none; stroke: #1f77b4; stroke-width: 1.5"/>
    <path d="M 362.62375 271.798125 
L 362.62375 241.225893 
L 369.237083 241.225893 
L 369.237083 242.445775 
" clip-path="url(#p1e7fade22d)" style="fill: none; stroke: #1f77b4; stroke-width: 1.5"/>
    <path d="M 359.317083 271.798125 
L 359.317083 240.421169 
L 365.930417 240.421169 
L 365.930417 241.225893 
" clip-path="url(#p1e7fade22d)" style="fill: none; stroke: #1f77b4; stroke-width: 1.5"/>
    <path d="M 356.010417 271.798125 
L 356.010417 239.445452 
L 362.62375 239.445452 
L 362.62375 240.421169 
" clip-path="url(#p1e7fade22d)" style="fill: none; stroke: #1f77b4; stroke-width: 1.5"/>
    <path d="M 352.70375 271.798125 
L 352.70375 239.201194 
L 359.317083 239.201194 
L 359.317083 239.445452 
" clip-path="url(#p1e7fade22d)" style="fill: none; stroke: #1f77b4; stroke-width: 1.5"/>
    <path d="M 349.397083 271.798125 
L 349.397083 238.828073 
L 356.010417 238.828073 
L 356.010417 239.201194 
" clip-path="url(#p1e7fade22d)" style="fill: none; stroke: #1f77b4; stroke-width: 1.5"/>
    <path d="M 346.090417 271.798125 
L 346.090417 237.813373 
L 352.70375 237.813373 
L 352.70375 238.828073 
" clip-path="url(#p1e7fade22d)" style="fill: none; stroke: #1f77b4; stroke-width: 1.5"/>
    <path d="M 342.78375 271.798125 
L 342.78375 237.382279 
L 349.397083 237.382279 
L 349.397083 237.813373 
" clip-path="url(#p1e7fade22d)" style="fill: none; stroke: #1f77b4; stroke-width: 1.5"/>
    <path d="M 339.477083 271.798125 
L 339.477083 237.189957 
L 346.090417 237.189957 
L 346.090417 237.382279 
" clip-path="url(#p1e7fade22d)" style="fill: none; stroke: #1f77b4; stroke-width: 1.5"/>
    <path d="M 336.170417 271.798125 
L 336.170417 236.986165 
L 342.78375 236.986165 
L 342.78375 237.189957 
" clip-path="url(#p1e7fade22d)" style="fill: none; stroke: #1f77b4; stroke-width: 1.5"/>
    <path d="M 332.86375 271.798125 
L 332.86375 236.460369 
L 339.477083 236.460369 
L 339.477083 236.986165 
" clip-path="url(#p1e7fade22d)" style="fill: none; stroke: #1f77b4; stroke-width: 1.5"/>
    <path d="M 329.557083 271.798125 
L 329.557083 236.102155 
L 336.170417 236.102155 
L 336.170417 236.460369 
" clip-path="url(#p1e7fade22d)" style="fill: none; stroke: #1f77b4; stroke-width: 1.5"/>
    <path d="M 326.250417 271.798125 
L 326.250417 235.871272 
L 332.86375 235.871272 
L 332.86375 236.102155 
" clip-path="url(#p1e7fade22d)" style="fill: none; stroke: #1f77b4; stroke-width: 1.5"/>
    <path d="M 322.94375 271.798125 
L 322.94375 235.525773 
L 329.557083 235.525773 
L 329.557083 235.871272 
" clip-path="url(#p1e7fade22d)" style="fill: none; stroke: #1f77b4; stroke-width: 1.5"/>
    <path d="M 319.637083 271.798125 
L 319.637083 234.010051 
L 326.250417 234.010051 
L 326.250417 235.525773 
" clip-path="url(#p1e7fade22d)" style="fill: none; stroke: #1f77b4; stroke-width: 1.5"/>
    <path d="M 316.330417 271.798125 
L 316.330417 233.811131 
L 322.94375 233.811131 
L 322.94375 234.010051 
" clip-path="url(#p1e7fade22d)" style="fill: none; stroke: #1f77b4; stroke-width: 1.5"/>
    <path d="M 313.02375 271.798125 
L 313.02375 233.55029 
L 319.637083 233.55029 
L 319.637083 233.811131 
" clip-path="url(#p1e7fade22d)" style="fill: none; stroke: #1f77b4; stroke-width: 1.5"/>
    <path d="M 309.717083 271.798125 
L 309.717083 232.83345 
L 316.330417 232.83345 
L 316.330417 233.55029 
" clip-path="url(#p1e7fade22d)" style="fill: none; stroke: #1f77b4; stroke-width: 1.5"/>
    <path d="M 306.410417 271.798125 
L 306.410417 232.538013 
L 313.02375 232.538013 
L 313.02375 232.83345 
" clip-path="url(#p1e7fade22d)" style="fill: none; stroke: #1f77b4; stroke-width: 1.5"/>
    <path d="M 303.10375 271.798125 
L 303.10375 232.033808 
L 309.717083 232.033808 
L 309.717083 232.538013 
" clip-path="url(#p1e7fade22d)" style="fill: none; stroke: #1f77b4; stroke-width: 1.5"/>
    <path d="M 299.797083 271.798125 
L 299.797083 231.809099 
L 306.410417 231.809099 
L 306.410417 232.033808 
" clip-path="url(#p1e7fade22d)" style="fill: none; stroke: #1f77b4; stroke-width: 1.5"/>
    <path d="M 296.490417 271.798125 
L 296.490417 231.533178 
L 303.10375 231.533178 
L 303.10375 231.809099 
" clip-path="url(#p1e7fade22d)" style="fill: none; stroke: #1f77b4; stroke-width: 1.5"/>
    <path d="M 293.18375 271.798125 
L 293.18375 230.853425 
L 299.797083 230.853425 
L 299.797083 231.533178 
" clip-path="url(#p1e7fade22d)" style="fill: none; stroke: #1f77b4; stroke-width: 1.5"/>
    <path d="M 289.877083 271.798125 
L 289.877083 230.59361 
L 296.490417 230.59361 
L 296.490417 230.853425 
" clip-path="url(#p1e7fade22d)" style="fill: none; stroke: #1f77b4; stroke-width: 1.5"/>
    <path d="M 286.570417 271.798125 
L 286.570417 230.074748 
L 293.18375 230.074748 
L 293.18375 230.59361 
" clip-path="url(#p1e7fade22d)" style="fill: none; stroke: #1f77b4; stroke-width: 1.5"/>
    <path d="M 283.26375 271.798125 
L 283.26375 229.907999 
L 289.877083 229.907999 
L 289.877083 230.074748 
" clip-path="url(#p1e7fade22d)" style="fill: none; stroke: #1f77b4; stroke-width: 1.5"/>
    <path d="M 279.957083 271.798125 
L 279.957083 229.107023 
L 286.570417 229.107023 
L 286.570417 229.907999 
" clip-path="url(#p1e7fade22d)" style="fill: none; stroke: #1f77b4; stroke-width: 1.5"/>
    <path d="M 276.650417 271.798125 
L 276.650417 228.530494 
L 283.26375 228.530494 
L 283.26375 229.107023 
" clip-path="url(#p1e7fade22d)" style="fill: none; stroke: #1f77b4; stroke-width: 1.5"/>
    <path d="M 273.34375 271.798125 
L 273.34375 228.256499 
L 279.957083 228.256499 
L 279.957083 228.530494 
" clip-path="url(#p1e7fade22d)" style="fill: none; stroke: #1f77b4; stroke-width: 1.5"/>
    <path d="M 270.037083 271.798125 
L 270.037083 227.25191 
L 276.650417 227.25191 
L 276.650417 228.256499 
" clip-path="url(#p1e7fade22d)" style="fill: none; stroke: #1f77b4; stroke-width: 1.5"/>
    <path d="M 266.730417 271.798125 
L 266.730417 226.402649 
L 273.34375 226.402649 
L 273.34375 227.25191 
" clip-path="url(#p1e7fade22d)" style="fill: none; stroke: #1f77b4; stroke-width: 1.5"/>
    <path d="M 263.42375 271.798125 
L 263.42375 225.126726 
L 270.037083 225.126726 
L 270.037083 226.402649 
" clip-path="url(#p1e7fade22d)" style="fill: none; stroke: #1f77b4; stroke-width: 1.5"/>
    <path d="M 260.117083 271.798125 
L 260.117083 224.833429 
L 266.730417 224.833429 
L 266.730417 225.126726 
" clip-path="url(#p1e7fade22d)" style="fill: none; stroke: #1f77b4; stroke-width: 1.5"/>
    <path d="M 256.810417 271.798125 
L 256.810417 224.613826 
L 263.42375 224.613826 
L 263.42375 224.833429 
" clip-path="url(#p1e7fade22d)" style="fill: none; stroke: #1f77b4; stroke-width: 1.5"/>
    <path d="M 253.50375 271.798125 
L 253.50375 224.310536 
L 260.117083 224.310536 
L 260.117083 224.613826 
" clip-path="url(#p1e7fade22d)" style="fill: none; stroke: #1f77b4; stroke-width: 1.5"/>
    <path d="M 250.197083 271.798125 
L 250.197083 223.91748 
L 256.810417 223.91748 
L 256.810417 224.310536 
" clip-path="url(#p1e7fade22d)" style="fill: none; stroke: #1f77b4; stroke-width: 1.5"/>
    <path d="M 246.890417 271.798125 
L 246.890417 223.334391 
L 253.50375 223.334391 
L 253.50375 223.91748 
" clip-path="url(#p1e7fade22d)" style="fill: none; stroke: #1f77b4; stroke-width: 1.5"/>
    <path d="M 243.58375 271.798125 
L 243.58375 223.121748 
L 250.197083 223.121748 
L 250.197083 223.334391 
" clip-path="url(#p1e7fade22d)" style="fill: none; stroke: #1f77b4; stroke-width: 1.5"/>
    <path d="M 240.277083 271.798125 
L 240.277083 222.871849 
L 246.890417 222.871849 
L 246.890417 223.121748 
" clip-path="url(#p1e7fade22d)" style="fill: none; stroke: #1f77b4; stroke-width: 1.5"/>
    <path d="M 236.970417 271.798125 
L 236.970417 222.115458 
L 243.58375 222.115458 
L 243.58375 222.871849 
" clip-path="url(#p1e7fade22d)" style="fill: none; stroke: #1f77b4; stroke-width: 1.5"/>
    <path d="M 233.66375 271.798125 
L 233.66375 221.882308 
L 240.277083 221.882308 
L 240.277083 222.115458 
" clip-path="url(#p1e7fade22d)" style="fill: none; stroke: #1f77b4; stroke-width: 1.5"/>
    <path d="M 230.357083 271.798125 
L 230.357083 221.571853 
L 236.970417 221.571853 
L 236.970417 221.882308 
" clip-path="url(#p1e7fade22d)" style="fill: none; stroke: #1f77b4; stroke-width: 1.5"/>
    <path d="M 227.050417 271.798125 
L 227.050417 221.357152 
L 233.66375 221.357152 
L 233.66375 221.571853 
" clip-path="url(#p1e7fade22d)" style="fill: none; stroke: #1f77b4; stroke-width: 1.5"/>
    <path d="M 223.74375 271.798125 
L 223.74375 219.903472 
L 230.357083 219.903472 
L 230.357083 221.357152 
" clip-path="url(#p1e7fade22d)" style="fill: none; stroke: #1f77b4; stroke-width: 1.5"/>
    <path d="M 220.437083 271.798125 
L 220.437083 219.579233 
L 227.050417 219.579233 
L 227.050417 219.903472 
" clip-path="url(#p1e7fade22d)" style="fill: none; stroke: #1f77b4; stroke-width: 1.5"/>
    <path d="M 217.130417 271.798125 
L 217.130417 215.916305 
L 223.74375 215.916305 
L 223.74375 219.579233 
" clip-path="url(#p1e7fade22d)" style="fill: none; stroke: #1f77b4; stroke-width: 1.5"/>
    <path d="M 213.82375 271.798125 
L 213.82375 215.575367 
L 220.437083 215.575367 
L 220.437083 215.916305 
" clip-path="url(#p1e7fade22d)" style="fill: none; stroke: #1f77b4; stroke-width: 1.5"/>
    <path d="M 210.517083 271.798125 
L 210.517083 215.313648 
L 217.130417 215.313648 
L 217.130417 215.575367 
" clip-path="url(#p1e7fade22d)" style="fill: none; stroke: #1f77b4; stroke-width: 1.5"/>
    <path d="M 207.210417 271.798125 
L 207.210417 156.785846 
L 213.82375 156.785846 
L 213.82375 215.313648 
" clip-path="url(#p1e7fade22d)" style="fill: none; stroke: #1f77b4; stroke-width: 1.5"/>
    <path d="M 203.90375 271.798125 
L 203.90375 147.122669 
L 210.517083 147.122669 
L 210.517083 156.785846 
" clip-path="url(#p1e7fade22d)" style="fill: none; stroke: #1f77b4; stroke-width: 1.5"/>
    <path d="M 200.597083 271.798125 
L 200.597083 140.440908 
L 207.210417 140.440908 
L 207.210417 147.122669 
" clip-path="url(#p1e7fade22d)" style="fill: none; stroke: #1f77b4; stroke-width: 1.5"/>
    <path d="M 197.290417 271.798125 
L 197.290417 135.500863 
L 203.90375 135.500863 
L 203.90375 140.440908 
" clip-path="url(#p1e7fade22d)" style="fill: none; stroke: #1f77b4; stroke-width: 1.5"/>
    <path d="M 193.98375 271.798125 
L 193.98375 131.589074 
L 200.597083 131.589074 
L 200.597083 135.500863 
" clip-path="url(#p1e7fade22d)" style="fill: none; stroke: #1f77b4; stroke-width: 1.5"/>
    <path d="M 190.677083 271.798125 
L 190.677083 130.396921 
L 197.290417 130.396921 
L 197.290417 131.589074 
" clip-path="url(#p1e7fade22d)" style="fill: none; stroke: #1f77b4; stroke-width: 1.5"/>
    <path d="M 187.370417 271.798125 
L 187.370417 129.187593 
L 193.98375 129.187593 
L 193.98375 130.396921 
" clip-path="url(#p1e7fade22d)" style="fill: none; stroke: #1f77b4; stroke-width: 1.5"/>
    <path d="M 184.06375 271.798125 
L 184.06375 128.325961 
L 190.677083 128.325961 
L 190.677083 129.187593 
" clip-path="url(#p1e7fade22d)" style="fill: none; stroke: #1f77b4; stroke-width: 1.5"/>
    <path d="M 180.757083 271.798125 
L 180.757083 117.309944 
L 187.370417 117.309944 
L 187.370417 128.325961 
" clip-path="url(#p1e7fade22d)" style="fill: none; stroke: #1f77b4; stroke-width: 1.5"/>
    <path d="M 177.450417 271.798125 
L 177.450417 116.204402 
L 184.06375 116.204402 
L 184.06375 117.309944 
" clip-path="url(#p1e7fade22d)" style="fill: none; stroke: #1f77b4; stroke-width: 1.5"/>
    <path d="M 68.330417 206.334643 
L 68.330417 114.381757 
L 180.757083 114.381757 
L 180.757083 116.204402 
" clip-path="url(#p1e7fade22d)" style="fill: none; stroke: #1f77b4; stroke-width: 1.5"/>
    <path d="M 61.717083 271.798125 
L 61.717083 94.399208 
L 124.54375 94.399208 
L 124.54375 114.381757 
" clip-path="url(#p1e7fade22d)" style="fill: none; stroke: #1f77b4; stroke-width: 1.5"/>
    <path d="M 58.410417 271.798125 
L 58.410417 81.128051 
L 93.130417 81.128051 
L 93.130417 94.399208 
" clip-path="url(#p1e7fade22d)" style="fill: none; stroke: #1f77b4; stroke-width: 1.5"/>
    <path d="M 55.10375 271.798125 
L 55.10375 76.12141 
L 75.770417 76.12141 
L 75.770417 81.128051 
" clip-path="url(#p1e7fade22d)" style="fill: none; stroke: #1f77b4; stroke-width: 1.5"/>
    <path d="M 51.797083 271.798125 
L 51.797083 34.198125 
L 65.437083 34.198125 
L 65.437083 76.12141 
" clip-path="url(#p1e7fade22d)" style="fill: none; stroke: #1f77b4; stroke-width: 1.5"/>
   </g>
   <g id="patch_3">
    <path d="M 50.14375 271.798125 
L 50.14375 22.318125 
" style="fill: none; stroke: #000000; stroke-width: 0.8; stroke-linejoin: miter; stroke-linecap: square"/>
   </g>
   <g id="patch_4">
    <path d="M 496.54375 271.798125 
L 496.54375 22.318125 
" style="fill: none; stroke: #000000; stroke-width: 0.8; stroke-linejoin: miter; stroke-linecap: square"/>
   </g>
   <g id="patch_5">
    <path d="M 50.14375 271.798125 
L 496.54375 271.798125 
" style="fill: none; stroke: #000000; stroke-width: 0.8; stroke-linejoin: miter; stroke-linecap: square"/>
   </g>
   <g id="patch_6">
    <path d="M 50.14375 22.318125 
L 496.54375 22.318125 
" style="fill: none; stroke: #000000; stroke-width: 0.8; stroke-linejoin: miter; stroke-linecap: square"/>
   </g>
   <g id="text_146">
    <!-- Phylogenetic Tree of 135 Bacterial Sequences -->
    <g transform="translate(136.118125 16.318125) scale(0.12 -0.12)">
     <defs>
      <path id="DejaVuSans-50" d="M 1259 4147 
L 1259 2394 
L 2053 2394 
Q 2494 2394 2734 2622 
Q 2975 2850 2975 3272 
Q 2975 3691 2734 3919 
Q 2494 4147 2053 4147 
L 1259 4147 
z
M 628 4666 
L 2053 4666 
Q 2838 4666 3239 4311 
Q 3641 3956 3641 3272 
Q 3641 2581 3239 2228 
Q 2838 1875 2053 1875 
L 1259 1875 
L 1259 0 
L 628 0 
L 628 4666 
z
" transform="scale(0.015625)"/>
      <path id="DejaVuSans-68" d="M 3513 2113 
L 3513 0 
L 2938 0 
L 2938 2094 
Q 2938 2591 2744 2837 
Q 2550 3084 2163 3084 
Q 1697 3084 1428 2787 
Q 1159 2491 1159 1978 
L 1159 0 
L 581 0 
L 581 4863 
L 1159 4863 
L 1159 2956 
Q 1366 3272 1645 3428 
Q 1925 3584 2291 3584 
Q 2894 3584 3203 3211 
Q 3513 2838 3513 2113 
z
" transform="scale(0.015625)"/>
      <path id="DejaVuSans-79" d="M 2059 -325 
Q 1816 -950 1584 -1140 
Q 1353 -1331 966 -1331 
L 506 -1331 
L 506 -850 
L 844 -850 
Q 1081 -850 1212 -737 
Q 1344 -625 1503 -206 
L 1606 56 
L 191 3500 
L 800 3500 
L 1894 763 
L 2988 3500 
L 3597 3500 
L 2059 -325 
z
" transform="scale(0.015625)"/>
      <path id="DejaVuSans-6c" d="M 603 4863 
L 1178 4863 
L 1178 0 
L 603 0 
L 603 4863 
z
" transform="scale(0.015625)"/>
      <path id="DejaVuSans-6f" d="M 1959 3097 
Q 1497 3097 1228 2736 
Q 959 2375 959 1747 
Q 959 1119 1226 758 
Q 1494 397 1959 397 
Q 2419 397 2687 759 
Q 2956 1122 2956 1747 
Q 2956 2369 2687 2733 
Q 2419 3097 1959 3097 
z
M 1959 3584 
Q 2709 3584 3137 3096 
Q 3566 2609 3566 1747 
Q 3566 888 3137 398 
Q 2709 -91 1959 -91 
Q 1206 -91 779 398 
Q 353 888 353 1747 
Q 353 2609 779 3096 
Q 1206 3584 1959 3584 
z
" transform="scale(0.015625)"/>
      <path id="DejaVuSans-67" d="M 2906 1791 
Q 2906 2416 2648 2759 
Q 2391 3103 1925 3103 
Q 1463 3103 1205 2759 
Q 947 2416 947 1791 
Q 947 1169 1205 825 
Q 1463 481 1925 481 
Q 2391 481 2648 825 
Q 2906 1169 2906 1791 
z
M 3481 434 
Q 3481 -459 3084 -895 
Q 2688 -1331 1869 -1331 
Q 1566 -1331 1297 -1286 
Q 1028 -1241 775 -1147 
L 775 -588 
Q 1028 -725 1275 -790 
Q 1522 -856 1778 -856 
Q 2344 -856 2625 -561 
Q 2906 -266 2906 331 
L 2906 616 
Q 2728 306 2450 153 
Q 2172 0 1784 0 
Q 1141 0 747 490 
Q 353 981 353 1791 
Q 353 2603 747 3093 
Q 1141 3584 1784 3584 
Q 2172 3584 2450 3431 
Q 2728 3278 2906 2969 
L 2906 3500 
L 3481 3500 
L 3481 434 
z
" transform="scale(0.015625)"/>
      <path id="DejaVuSans-54" d="M -19 4666 
L 3928 4666 
L 3928 4134 
L 2272 4134 
L 2272 0 
L 1638 0 
L 1638 4134 
L -19 4134 
L -19 4666 
z
" transform="scale(0.015625)"/>
      <path id="DejaVuSans-66" d="M 2375 4863 
L 2375 4384 
L 1825 4384 
Q 1516 4384 1395 4259 
Q 1275 4134 1275 3809 
L 1275 3500 
L 2222 3500 
L 2222 3053 
L 1275 3053 
L 1275 0 
L 697 0 
L 697 3053 
L 147 3053 
L 147 3500 
L 697 3500 
L 697 3744 
Q 697 4328 969 4595 
Q 1241 4863 1831 4863 
L 2375 4863 
z
" transform="scale(0.015625)"/>
      <path id="DejaVuSans-53" d="M 3425 4513 
L 3425 3897 
Q 3066 4069 2747 4153 
Q 2428 4238 2131 4238 
Q 1616 4238 1336 4038 
Q 1056 3838 1056 3469 
Q 1056 3159 1242 3001 
Q 1428 2844 1947 2747 
L 2328 2669 
Q 3034 2534 3370 2195 
Q 3706 1856 3706 1288 
Q 3706 609 3251 259 
Q 2797 -91 1919 -91 
Q 1588 -91 1214 -16 
Q 841 59 441 206 
L 441 856 
Q 825 641 1194 531 
Q 1563 422 1919 422 
Q 2459 422 2753 634 
Q 3047 847 3047 1241 
Q 3047 1584 2836 1778 
Q 2625 1972 2144 2069 
L 1759 2144 
Q 1053 2284 737 2584 
Q 422 2884 422 3419 
Q 422 4038 858 4394 
Q 1294 4750 2059 4750 
Q 2388 4750 2728 4690 
Q 3069 4631 3425 4513 
z
" transform="scale(0.015625)"/>
      <path id="DejaVuSans-71" d="M 947 1747 
Q 947 1113 1208 752 
Q 1469 391 1925 391 
Q 2381 391 2643 752 
Q 2906 1113 2906 1747 
Q 2906 2381 2643 2742 
Q 2381 3103 1925 3103 
Q 1469 3103 1208 2742 
Q 947 2381 947 1747 
z
M 2906 525 
Q 2725 213 2448 61 
Q 2172 -91 1784 -91 
Q 1150 -91 751 415 
Q 353 922 353 1747 
Q 353 2572 751 3078 
Q 1150 3584 1784 3584 
Q 2172 3584 2448 3432 
Q 2725 3281 2906 2969 
L 2906 3500 
L 3481 3500 
L 3481 -1331 
L 2906 -1331 
L 2906 525 
z
" transform="scale(0.015625)"/>
      <path id="DejaVuSans-75" d="M 544 1381 
L 544 3500 
L 1119 3500 
L 1119 1403 
Q 1119 906 1312 657 
Q 1506 409 1894 409 
Q 2359 409 2629 706 
Q 2900 1003 2900 1516 
L 2900 3500 
L 3475 3500 
L 3475 0 
L 2900 0 
L 2900 538 
Q 2691 219 2414 64 
Q 2138 -91 1772 -91 
Q 1169 -91 856 284 
Q 544 659 544 1381 
z
M 1991 3584 
L 1991 3584 
z
" transform="scale(0.015625)"/>
     </defs>
     <use xlink:href="#DejaVuSans-50"/>
     <use xlink:href="#DejaVuSans-68" transform="translate(60.302734 0)"/>
     <use xlink:href="#DejaVuSans-79" transform="translate(123.681641 0)"/>
     <use xlink:href="#DejaVuSans-6c" transform="translate(182.861328 0)"/>
     <use xlink:href="#DejaVuSans-6f" transform="translate(210.644531 0)"/>
     <use xlink:href="#DejaVuSans-67" transform="translate(271.826172 0)"/>
     <use xlink:href="#DejaVuSans-65" transform="translate(335.302734 0)"/>
     <use xlink:href="#DejaVuSans-6e" transform="translate(396.826172 0)"/>
     <use xlink:href="#DejaVuSans-65" transform="translate(460.205078 0)"/>
     <use xlink:href="#DejaVuSans-74" transform="translate(521.728516 0)"/>
     <use xlink:href="#DejaVuSans-69" transform="translate(560.9375 0)"/>
     <use xlink:href="#DejaVuSans-63" transform="translate(588.720703 0)"/>
     <use xlink:href="#DejaVuSans-20" transform="translate(643.701172 0)"/>
     <use xlink:href="#DejaVuSans-54" transform="translate(675.488281 0)"/>
     <use xlink:href="#DejaVuSans-72" transform="translate(721.822266 0)"/>
     <use xlink:href="#DejaVuSans-65" transform="translate(760.685547 0)"/>
     <use xlink:href="#DejaVuSans-65" transform="translate(822.208984 0)"/>
     <use xlink:href="#DejaVuSans-20" transform="translate(883.732422 0)"/>
     <use xlink:href="#DejaVuSans-6f" transform="translate(915.519531 0)"/>
     <use xlink:href="#DejaVuSans-66" transform="translate(976.701172 0)"/>
     <use xlink:href="#DejaVuSans-20" transform="translate(1011.90625 0)"/>
     <use xlink:href="#DejaVuSans-31" transform="translate(1043.693359 0)"/>
     <use xlink:href="#DejaVuSans-33" transform="translate(1107.316406 0)"/>
     <use xlink:href="#DejaVuSans-35" transform="translate(1170.939453 0)"/>
     <use xlink:href="#DejaVuSans-20" transform="translate(1234.5625 0)"/>
     <use xlink:href="#DejaVuSans-42" transform="translate(1266.349609 0)"/>
     <use xlink:href="#DejaVuSans-61" transform="translate(1334.953125 0)"/>
     <use xlink:href="#DejaVuSans-63" transform="translate(1396.232422 0)"/>
     <use xlink:href="#DejaVuSans-74" transform="translate(1451.212891 0)"/>
     <use xlink:href="#DejaVuSans-65" transform="translate(1490.421875 0)"/>
     <use xlink:href="#DejaVuSans-72" transform="translate(1551.945312 0)"/>
     <use xlink:href="#DejaVuSans-69" transform="translate(1593.058594 0)"/>
     <use xlink:href="#DejaVuSans-61" transform="translate(1620.841797 0)"/>
     <use xlink:href="#DejaVuSans-6c" transform="translate(1682.121094 0)"/>
     <use xlink:href="#DejaVuSans-20" transform="translate(1709.904297 0)"/>
     <use xlink:href="#DejaVuSans-53" transform="translate(1741.691406 0)"/>
     <use xlink:href="#DejaVuSans-65" transform="translate(1805.167969 0)"/>
     <use xlink:href="#DejaVuSans-71" transform="translate(1866.691406 0)"/>
     <use xlink:href="#DejaVuSans-75" transform="translate(1930.167969 0)"/>
     <use xlink:href="#DejaVuSans-65" transform="translate(1993.546875 0)"/>
     <use xlink:href="#DejaVuSans-6e" transform="translate(2055.070312 0)"/>
     <use xlink:href="#DejaVuSans-63" transform="translate(2118.449219 0)"/>
     <use xlink:href="#DejaVuSans-65" transform="translate(2173.429688 0)"/>
     <use xlink:href="#DejaVuSans-73" transform="translate(2234.953125 0)"/>
    </g>
   </g>
  </g>
 </g>
 <defs>
  <clipPath id="p1e7fade22d">
   <rect x="50.14375" y="22.318125" width="446.4" height="249.48"/>
  </clipPath>
 </defs>
</svg>
